<?xml version="1.0" encoding="UTF-8"?>
<svg version="1.1" xmlns="http://www.w3.org/2000/svg" width="259" height="246">
<path d="M0 0 C2.4774133 2.21721031 3.70492753 4.18902159 4.9453125 7.26171875 C5.29577637 8.12168457 5.64624023 8.98165039 6.00732422 9.86767578 C6.56057373 11.26348877 6.56057373 11.26348877 7.125 12.6875 C7.51316895 13.65413574 7.90133789 14.62077148 8.30126953 15.61669922 C9.54727351 18.73947476 10.77661188 21.86829872 12 25 C12.41185547 26.05300293 12.82371094 27.10600586 13.24804688 28.19091797 C14.46887061 31.3312122 15.67521169 34.47661404 16.875 37.625 C17.24383301 38.58237061 17.61266602 39.53974121 17.99267578 40.52612305 C21.79698617 50.64733778 24.89684505 59.83727235 23.1875 70.6875 C21.19452185 84.89778798 22.61212268 97.71326039 26.125 111.625 C28.44765468 120.97226883 29.35300691 129.779231 26 139 C25.01 139 24.02 139 23 139 C22.56171875 137.77152344 22.1234375 136.54304687 21.671875 135.27734375 C17.01576676 122.31239343 12.12372088 109.44908525 7.12597656 96.61303711 C6.87529922 95.96913528 6.62462189 95.32523346 6.36634827 94.66181946 C5.68349913 92.9091348 4.99938865 91.15694171 4.31518555 89.40478516 C2.85037793 85.61265465 1.42208284 81.80834253 0 78 C-0.26673523 78.69189423 -0.53347046 79.38378845 -0.80828857 80.09664917 C-3.33759525 86.65717706 -5.86750873 93.21747056 -8.39808273 99.77750969 C-9.69865926 103.14907278 -10.99901128 106.52072208 -12.29882812 109.89257812 C-13.55616637 113.1542147 -14.8141232 116.41561209 -16.07248688 119.67685318 C-16.77959856 121.50990172 -17.48609002 123.34318948 -18.19256592 125.17648315 C-20.75011468 131.80301907 -23.34709162 138.41104183 -26 145 C-20.39 145 -14.78 145 -9 145 C-7.8733116 150.63344201 -7.8733116 150.63344201 -9.109375 154.35546875 C-9.36976562 155.14244141 -9.63015625 155.92941406 -9.8984375 156.74023438 C-10.17945312 157.54783203 -10.46046875 158.35542969 -10.75 159.1875 C-11.01554687 160.00669922 -11.28109375 160.82589844 -11.5546875 161.66992188 C-13.61390021 167.74260014 -13.61390021 167.74260014 -17 170 C-19.17651367 170.22705078 -19.17651367 170.22705078 -21.66796875 170.1953125 C-22.56064453 170.18886719 -23.45332031 170.18242187 -24.37304688 170.17578125 C-25.76620117 170.15064453 -25.76620117 170.15064453 -27.1875 170.125 C-28.12787109 170.11597656 -29.06824219 170.10695312 -30.03710938 170.09765625 C-32.35832968 170.07409056 -34.67903644 170.04119116 -37 170 C-37.52207031 171.88525391 -37.52207031 171.88525391 -38.0546875 173.80859375 C-40.36665296 181.51197571 -43.29256636 188.99519462 -46.15283203 196.50756836 C-47.13393147 199.0859726 -48.10831563 201.66684634 -49.08203125 204.24804688 C-49.702732 205.88556569 -50.32381167 207.52294093 -50.9453125 209.16015625 C-51.38280319 210.31935326 -51.38280319 210.31935326 -51.82913208 211.50196838 C-53.88471098 216.88471098 -53.88471098 216.88471098 -55 218 C-56.92667507 218.08748207 -58.85651861 218.10697334 -60.78515625 218.09765625 C-61.95498047 218.09443359 -63.12480469 218.09121094 -64.33007812 218.08789062 C-65.56177734 218.07951172 -66.79347656 218.07113281 -68.0625 218.0625 C-69.91584961 218.05573242 -69.91584961 218.05573242 -71.80664062 218.04882812 C-74.87114117 218.03699608 -77.93554721 218.02051173 -81 218 C-82.13152002 213.93561439 -81.8414267 211.63991462 -80.33203125 207.72705078 C-79.93934555 206.69062943 -79.54665985 205.65420807 -79.14207458 204.58638 C-78.70331497 203.46732773 -78.26455536 202.34827545 -77.8125 201.1953125 C-77.36346817 200.02079025 -76.91443634 198.84626801 -76.45179749 197.63615417 C-75.23275264 194.45463742 -74.00271542 191.27780798 -72.76747513 188.10257339 C-71.48224536 184.79088797 -70.21142299 181.47368453 -68.93920898 178.15698242 C-66.66272325 172.2278429 -64.37478278 166.30321088 -62.08137989 160.38059711 C-59.95062013 154.87649172 -57.83401666 149.36703901 -55.72265625 143.85546875 C-51.319156 132.36756924 -46.89382813 120.88814929 -42.45036316 109.41564941 C-40.98551343 105.63212618 -39.52336415 101.84756374 -38.0625 98.0625 C-37.77031586 97.30565918 -37.47813171 96.54881836 -37.17709351 95.76904297 C-32.68362958 84.11553662 -28.27498056 72.43073511 -23.89453125 60.734375 C-23.62708918 60.02038984 -23.3596471 59.30640469 -23.08410072 58.57078362 C-20.38146026 51.35463279 -17.68184327 44.13736554 -14.98966885 36.91730309 C-13.97291547 34.19157455 -12.95443811 31.46649199 -11.93568993 28.74150848 C-11.23632438 26.86876172 -10.53941843 24.995097 -9.84260559 23.12139893 C-1.91147217 1.91147217 -1.91147217 1.91147217 0 0 Z " fill="#E47120" transform="translate(131,10)"/>
<path d="M0 0 C3.54306904 2.36204603 4.39485122 4.70601293 6.0625 8.4375 C9.92286543 16.63486683 14.85943645 24.02854038 19.9375 31.5 C26.4440299 41.09326063 32.69192088 50.67873505 38 61 C38.495 61.9384375 38.99 62.876875 39.5 63.84375 C49.35724637 83.79293908 50.20440207 106.48041942 43.93359375 127.58984375 C41.24754773 135.0451728 37.60735172 141.56631066 33 148 C32.55140625 148.63421875 32.1028125 149.2684375 31.640625 149.921875 C23.24676927 160.68576058 10.03688625 168.42158321 -3.36328125 170.73046875 C-8.23909691 171.22888546 -13.10658508 171.15134273 -18 171 C-18.33 170.01 -18.66 169.02 -19 168 C-18.53464844 167.09636719 -18.06929687 166.19273437 -17.58984375 165.26171875 C-14.24732805 158.40422339 -15.05015674 148.90119922 -17.25 141.6875 C-19.78891166 135.53728439 -23.79229962 130.22635053 -27.55883789 124.78100586 C-36.51482325 111.64491559 -39.57726415 98.03035266 -37.65625 82.16015625 C-37.1875 79.75 -37.1875 79.75 -36 76 C-34.515 75.01 -34.515 75.01 -33 74 C-32.63648438 74.94359375 -32.63648438 74.94359375 -32.265625 75.90625 C-31.93046875 76.7621875 -31.5953125 77.618125 -31.25 78.5 C-30.92515625 79.3353125 -30.6003125 80.170625 -30.265625 81.03125 C-26.90992716 88.90263999 -22.7560427 95.23779806 -17.421875 101.91210938 C-12.48506044 108.26389477 -8.83309681 114.87730606 -8 123 C0.15858709 117.53333251 6.0404722 111.54833325 8.52734375 101.82421875 C10.62824392 89.27090617 7.75028858 79.14195776 3.28125 67.5234375 C-4.5920624 46.96044507 -6.29567175 29.02421528 -2.8515625 7.17578125 C-2.73635254 6.44270752 -2.62114258 5.70963379 -2.50244141 4.9543457 C-2 3 -2 3 0 0 Z " fill="#D0481C" transform="translate(167,58)"/>
<path d="M0 0 C5.05215523 2.66906314 8.16941171 5.33025194 9.875 10.8125 C10.03748319 14.9558214 8.95147424 17.36622039 7 21 C6.30865967 21.58628174 5.61731934 22.17256348 4.9050293 22.77661133 C2.24011894 25.88686875 2.58879486 27.90008111 2.70703125 31.94921875 C2.72436075 33.35658018 2.73914823 34.76397465 2.75170898 36.17138672 C2.76338104 36.9080658 2.7750531 37.64474487 2.78707886 38.40374756 C2.95857809 53.81067828 0.71168747 66.41035266 -5.54125977 80.62988281 C-11.27987564 93.88776625 -16.35937588 107.43951245 -21.47155762 120.94824219 C-23.17823998 125.45683414 -24.89169858 129.9628483 -26.60546875 134.46875 C-26.96061554 135.40259521 -27.31576233 136.33644043 -27.68167114 137.29858398 C-31.83630159 148.21247635 -36.04013827 159.10731707 -40.25 170 C-40.61189423 170.93706787 -40.97378845 171.87413574 -41.34664917 172.83959961 C-43.29428077 177.88177114 -45.2469959 182.92190629 -47.20776367 187.95898438 C-47.90979066 189.76759628 -48.60482748 191.57891806 -49.29882812 193.390625 C-49.64880859 194.29296875 -49.99878906 195.1953125 -50.359375 196.125 C-50.63749023 196.84945312 -50.91560547 197.57390625 -51.20214844 198.3203125 C-52 200 -52 200 -54 202 C-57.625 202.125 -57.625 202.125 -61 202 C-62.76167354 196.90101818 -60.98246477 193.25367374 -59.125 188.4765625 C-58.80860062 187.63411987 -58.49220123 186.79167725 -58.16621399 185.92370605 C-57.48026207 184.10324452 -56.78837008 182.28501253 -56.09121704 180.46881104 C-54.9926971 177.60596798 -53.91101974 174.73722973 -52.83276367 171.86669922 C-49.49875804 163.02046543 -46.09902575 154.20255691 -42.5930481 145.42300415 C-41.16450519 141.84539226 -39.74885341 138.2627217 -38.33227539 134.68035889 C-37.32472753 132.15563981 -36.2929137 129.64177122 -35.25976562 127.12744141 C-34.64737622 125.58798685 -34.03599084 124.04813239 -33.42578125 122.5078125 C-33.13294754 121.81699585 -32.84011383 121.1261792 -32.53840637 120.41442871 C-31.32357364 117.2821166 -30.76673478 115.58418012 -32.03588867 112.40576172 C-34.0278943 109.88165543 -34.0278943 109.88165543 -36.65429688 107.35791016 C-40.19780827 103.17958883 -39.63553197 98.50696827 -39.53125 93.2734375 C-39.53451294 92.24819977 -39.53777588 91.22296204 -39.5411377 90.16665649 C-39.55095783 86.90223768 -39.5293603 83.63928738 -39.5 80.375 C-39.46140223 76.06976709 -39.4550221 71.76628604 -39.46875 67.4609375 C-39.44913208 66.47233734 -39.42951416 65.48373718 -39.40930176 64.46517944 C-39.31129546 58.87616531 -39.31129546 58.87616531 -42.45288086 54.46972656 C-43.71370483 53.74221191 -43.71370483 53.74221191 -45 53 C-47.64683524 48.9291835 -47.80819155 44.71036891 -47 40 C-45.33797623 36.86797912 -43.01036237 34.7664818 -40.1875 32.625 C-35.53623798 31.29606799 -31.51590668 31.29257688 -27.1875 33.3125 C-23.98741673 35.78113567 -22.29776462 37.10670614 -21 41 C-20.60432985 46.24262952 -21.16407799 49.54355112 -24 54 C-24.68672791 54.45760208 -25.37345581 54.91520416 -26.08099365 55.38667297 C-28.18272925 56.82443866 -28.18272925 56.82443866 -28.48101807 59.10710144 C-28.47213562 59.91762466 -28.46325317 60.72814789 -28.45410156 61.56323242 C-28.45379944 62.48396042 -28.45349731 63.40468842 -28.45318604 64.35331726 C-28.43254089 65.34402725 -28.41189575 66.33473724 -28.390625 67.35546875 C-28.38213531 68.88062859 -28.38213531 68.88062859 -28.37347412 70.43659973 C-28.35106519 73.68737672 -28.30085942 76.93705559 -28.25 80.1875 C-28.22994089 82.38995805 -28.2116891 84.59243336 -28.1953125 86.79492188 C-28.1511858 92.1969899 -28.08422889 97.59841651 -28 103 C-27.01 103 -26.02 103 -25 103 C-24.89421631 102.17113281 -24.78843262 101.34226562 -24.67944336 100.48828125 C-23.90846696 96.53006682 -22.59872645 92.92457094 -21.12890625 89.1875 C-20.70532082 88.0895813 -20.70532082 88.0895813 -20.2731781 86.96948242 C-19.37496686 84.64420818 -18.46907376 82.32202506 -17.5625 80 C-16.66101478 77.67741511 -15.76115632 75.35421142 -14.86253357 73.03051758 C-14.30468518 71.58947615 -13.74494613 70.14916469 -13.18299866 68.7097168 C-12.44477818 66.81054669 -11.72193625 64.9054198 -11 63 C-10.42572266 61.48575439 -10.42572266 61.48575439 -9.83984375 59.94091797 C-8.36236316 54.7671589 -8.51157796 49.51981719 -8.46459961 44.16943359 C-8.4376396 42.13553162 -8.3626368 40.10681682 -8.28710938 38.07421875 C-8.15206371 29.42343872 -8.15206371 29.42343872 -12.47265625 22.2421875 C-13.1056665 21.67097168 -13.73867676 21.09975586 -14.39086914 20.51123047 C-16.8795508 18.17396155 -16.99828522 16.01817671 -17.3125 12.6875 C-16.93790854 8.26732079 -15.83614013 6.37270719 -13 3 C-9.05913462 -0.28405449 -4.98857772 -0.89011877 0 0 Z M-7 10 C-7 11.65 -7 13.3 -7 15 C-4.525 15.495 -4.525 15.495 -2 16 C-1.34 14.68 -0.68 13.36 0 12 C-0.66 11.01 -1.32 10.02 -2 9 C-4.9254644 8.7763932 -4.9254644 8.7763932 -7 10 Z M-36 41 C-37.10636395 43.39068734 -37.10636395 43.39068734 -38 46 C-37.67 46.66 -37.34 47.32 -37 48 C-35.35 48 -33.7 48 -32 48 C-31.32041397 45.60280568 -31.32041397 45.60280568 -31 43 C-31.66 42.34 -32.32 41.68 -33 41 C-33.99 41 -34.98 41 -36 41 Z " fill="#E17323" transform="translate(89,26)"/>
<path d="M0 0 C5.05215523 2.66906314 8.16941171 5.33025194 9.875 10.8125 C10.03748319 14.9558214 8.95147424 17.36622039 7 21 C6.31373535 21.57250488 5.6274707 22.14500977 4.92041016 22.73486328 C2.26571244 25.86609712 2.43284105 28.6955177 2.4609375 32.6171875 C2.44914459 33.3519632 2.43735168 34.08673889 2.42520142 34.84378052 C2.38997571 37.18773598 2.38077982 39.53080173 2.375 41.875 C2.35860149 44.21178822 2.33641614 46.54818243 2.30337524 48.88479614 C2.28391251 50.33608905 2.27439205 51.78756122 2.27645874 53.23898315 C2.23173855 57.52752641 1.56433334 61.00951232 0 65 C-0.99 65 -1.98 65 -3 65 C-3.33 66.65 -3.66 68.3 -4 70 C-5.32 70 -6.64 70 -8 70 C-9.12764945 63.48469207 -9.12764945 63.48469207 -8.53564453 61.23681641 C-7.75943481 57.99541556 -7.85753601 54.77428098 -7.8671875 51.4609375 C-7.86623077 50.73887115 -7.86527405 50.01680481 -7.86428833 49.27285767 C-7.8636096 47.75156568 -7.86544247 46.23027075 -7.86962891 44.70898438 C-7.87499715 42.37623641 -7.8696656 40.04367962 -7.86328125 37.7109375 C-7.86394178 36.23177041 -7.86522242 34.75260343 -7.8671875 33.2734375 C-7.86516327 32.57447357 -7.86313904 31.87550964 -7.86105347 31.15536499 C-7.82844173 27.45358737 -7.82844173 27.45358737 -9 24 C-9.78375 23.7525 -10.5675 23.505 -11.375 23.25 C-15.01986615 21.51434945 -15.65408787 19.75438646 -17 16 C-17.53544952 11.71640386 -17.31035287 9.59771664 -15.3125 5.75 C-10.98419166 0.60282252 -6.75560412 -1.20541172 0 0 Z M-7 10 C-7 11.65 -7 13.3 -7 15 C-4.525 15.495 -4.525 15.495 -2 16 C-1.34 14.68 -0.68 13.36 0 12 C-0.66 11.01 -1.32 10.02 -2 9 C-4.9254644 8.7763932 -4.9254644 8.7763932 -7 10 Z " fill="#F08628" transform="translate(89,26)"/>
<path d="M0 0 C2 1 2 1 2.97265625 3.73828125 C3.51212891 5.50751953 3.51212891 5.50751953 4.0625 7.3125 C6.60659028 15.03984001 10.89880267 20.69109871 16 27 C20.5821642 33.09609511 24.34538923 39.46866822 26 47 C25.59765625 49.828125 25.59765625 49.828125 25 52 C23.68 51.01 22.36 50.02 21 49 C18.00675737 50.0975223 17.15389099 50.67682892 15.75 53.625 C15.5025 54.40875 15.255 55.1925 15 56 C14.34 56 13.68 56 13 56 C13 56.66 13 57.32 13 58 C13.66 58 14.32 58 15 58 C15 58.66 15 59.32 15 60 C15.66 60 16.32 60 17 60 C17 61.32 17 62.64 17 64 C16.34 64 15.68 64 15 64 C12.63784661 61.12955145 10.70303918 57.93274183 8.6875 54.8125 C8.09807617 53.90226074 7.50865234 52.99202148 6.90136719 52.05419922 C-2.16742498 37.73705245 -6.63363714 22.79589854 -3.125 5.75 C-2 2 -2 2 0 0 Z " fill="#D45E1E" transform="translate(133,132)"/>
<path d="M0 0 C1.16940114 3.50820342 0.8308132 4.11124957 -0.4921875 7.43359375 C-0.85940918 8.37138672 -1.22663086 9.30917969 -1.60498047 10.27539062 C-2.23364014 11.84063477 -2.23364014 11.84063477 -2.875 13.4375 C-3.7922366 15.76930714 -4.70885351 18.1013581 -5.625 20.43359375 C-6.00771561 21.40188614 -6.00771561 21.40188614 -6.39816284 22.38973999 C-8.73405729 28.30126989 -11.02688315 34.22902846 -13.3125 40.16015625 C-13.68722443 41.13238632 -14.06194885 42.10461639 -14.44802856 43.10630798 C-15.21057305 45.08509166 -15.97303417 47.06390746 -16.7354126 49.04275513 C-18.56872251 53.80021939 -20.40456409 58.55670037 -22.2421875 63.3125 C-22.56171387 64.14092911 -22.88124023 64.96935822 -23.21044922 65.82289124 C-23.82428248 67.41099821 -24.4404078 68.9982215 -25.059021 70.58447266 C-25.72957007 72.30579652 -26.39344641 74.02972606 -27.05279541 75.75537109 C-27.40162781 76.65465332 -27.75046021 77.55393555 -28.10986328 78.48046875 C-28.42400177 79.29797607 -28.73814026 80.1154834 -29.0617981 80.95776367 C-30 83 -30 83 -32 85 C-35.625 85.125 -35.625 85.125 -39 85 C-40.81583906 79.84123416 -38.89742255 76.03068951 -37.01953125 71.1953125 C-36.69506516 70.3307695 -36.37059906 69.4662265 -36.03630066 68.57548523 C-34.97377863 65.75391975 -33.89344302 62.93955391 -32.8125 60.125 C-32.07908626 58.18877059 -31.34666995 56.2521631 -30.61523438 54.31518555 C-28.42807492 48.53653998 -26.21665205 42.76738486 -24 37 C-23.35331963 35.31430312 -22.70667093 33.62859408 -22.06005859 31.94287109 C-18.73543927 23.2839749 -15.38381944 14.63595162 -12 6 C-10.48046875 7.828125 -10.48046875 7.828125 -9 10 C-9.3125 12.75 -9.3125 12.75 -10 15 C-8.62437146 13.71034824 -7.29233607 12.37310707 -6 11 C-6 10.34 -6 9.68 -6 9 C-5.34 9 -4.68 9 -4 9 C-3.67 6.69 -3.34 4.38 -3 2 C-2.01 2 -1.02 2 0 2 C0 1.34 0 0.68 0 0 Z " fill="#CD6526" transform="translate(67,143)"/>
<path d="M0 0 C0.66 0 1.32 0 2 0 C2 0.66 2 1.32 2 2 C3.0828125 2.3403125 3.0828125 2.3403125 4.1875 2.6875 C10.56177309 5.66216077 14.75826604 11.91807617 18 18 C18.9657192 21.02530991 19.49991247 23.84944855 20 27 C20.66 27 21.32 27 22 27 C21.125 31.75 21.125 31.75 20 34 C19.01 34 18.02 34 17 34 C16.67 34.99 16.34 35.98 16 37 C13.36 37 10.72 37 8 37 C8 36.34 8 35.68 8 35 C6.576875 35.2475 6.576875 35.2475 5.125 35.5 C2 36 2 36 0 36 C-1.485 36.495 -1.485 36.495 -3 37 C-2.67 34.69 -2.34 32.38 -2 30 C-3.32 30 -4.64 30 -6 30 C-6.66 30.66 -7.32 31.32 -8 32 C-8.04898438 31.34773438 -8.09796875 30.69546875 -8.1484375 30.0234375 C-8.4865351 26.07119312 -8.79849687 22.57092553 -10.125 18.8125 C-11.24088147 15.22573814 -10.67766373 12.65938417 -10 9 C-10 7.68 -10 6.36 -10 5 C-8.68 5 -7.36 5 -6 5 C-6 4.34 -6 3.68 -6 3 C-4.35 3.33 -2.7 3.66 -1 4 C-0.67 2.68 -0.34 1.36 0 0 Z " fill="#E25120" transform="translate(175,80)"/>
<path d="M0 0 C2.12137694 3.18206541 2.26479552 4.1543037 1.59765625 7.7890625 C-0.87316759 16.92949578 -5.26773613 24.54939942 -11 32 C-11.721875 33.010625 -12.44375 34.02125 -13.1875 35.0625 C-22.09634991 45.34418907 -35.47130273 52.6170665 -49 54 C-53.00710433 54.13784819 -56.99287165 54.1239318 -61 54 C-60 52 -60 52 -58.14453125 51.25390625 C-56.99017578 50.91166016 -56.99017578 50.91166016 -55.8125 50.5625 C-51.05783837 49.06341879 -46.58554938 47.58554938 -43 44 C-42.01 44 -41.02 44 -40 44 C-39.9175 43.4225 -39.835 42.845 -39.75 42.25 C-38.78202213 39.3460664 -37.31305716 37.96259396 -35 36 C-34.34 36 -33.68 36 -33 36 C-32.7525 35.29875 -32.505 34.5975 -32.25 33.875 C-31 31 -31 31 -29.125 28.5 C-23.94639833 20.97454139 -22.4040514 10.94973847 -22 2 C-20 3 -20 3 -19.25 5.125 C-19 8 -19 8 -20.0625 11.375 C-21.22538903 15.87150427 -20.56915043 17.72842382 -19 22 C-19.99 22.99 -20.98 23.98 -22 25 C-21.505 25.99 -21.505 25.99 -21 27 C-21.66 27 -22.32 27 -23 27 C-23 27.66 -23 28.32 -23 29 C-21.35 29.33 -19.7 29.66 -18 30 C-18.495 31.485 -18.495 31.485 -19 33 C-18.34 33 -17.68 33 -17 33 C-16.731875 32.443125 -16.46375 31.88625 -16.1875 31.3125 C-14.88383449 28.77378296 -13.62991973 26.34708441 -12 24 C-11.01 24 -10.02 24 -9 24 C-9.57344937 21.13275314 -9.8614515 20.1385485 -12 18 C-11.25 15.5625 -11.25 15.5625 -10 13 C-8.0625 12.3125 -8.0625 12.3125 -6 12 C-5.01 11.34 -4.02 10.68 -3 10 C-3.66 8.02 -4.32 6.04 -5 4 C-3.35 2.68 -1.7 1.36 0 0 Z M-19 6 C-17 7 -17 7 -17 7 Z " fill="#B83013" transform="translate(210,175)"/>
<path d="M0 0 C3.20008327 2.46863567 4.88973538 3.79420614 6.1875 7.6875 C6.58317015 12.93012952 6.02342201 16.23105112 3.1875 20.6875 C-0.1125 23.6875 -0.1125 23.6875 -2.8125 23.6875 C-2.8125 38.2075 -2.8125 52.7275 -2.8125 67.6875 C-3.1425 67.6875 -3.4725 67.6875 -3.8125 67.6875 C-3.8125 53.4975 -3.8125 39.3075 -3.8125 24.6875 C-4.8025 25.0175 -5.7925 25.3475 -6.8125 25.6875 C-7.8025 25.3575 -8.7925 25.0275 -9.8125 24.6875 C-9.8125 39.5375 -9.8125 54.3875 -9.8125 69.6875 C-9.1525 70.0175 -8.4925 70.3475 -7.8125 70.6875 C-8.8025 71.1825 -8.8025 71.1825 -9.8125 71.6875 C-10.4725 71.3575 -11.1325 71.0275 -11.8125 70.6875 C-11.81392502 70.10756287 -11.81535004 69.52762573 -11.81681824 68.93011475 C-11.83650149 62.89514847 -11.89074495 56.86119552 -11.96508789 50.82666016 C-11.9882881 48.57445546 -12.00266832 46.32214196 -12.00805664 44.06982422 C-12.01733112 40.83231643 -12.05829056 37.59652482 -12.10546875 34.359375 C-12.1015361 33.35195251 -12.09760345 32.34453003 -12.09355164 31.30657959 C-12.09388379 25.62738691 -12.09388379 25.62738691 -15.27636719 21.14404297 C-16.11329102 20.66338379 -16.95021484 20.18272461 -17.8125 19.6875 C-20.45933524 15.6166835 -20.62069155 11.39786891 -19.8125 6.6875 C-18.15047623 3.55547912 -15.82286237 1.4539818 -13 -0.6875 C-8.34873798 -2.01643201 -4.32840668 -2.01992312 0 0 Z M-8.8125 7.6875 C-9.91886395 10.07818734 -9.91886395 10.07818734 -10.8125 12.6875 C-10.4825 13.3475 -10.1525 14.0075 -9.8125 14.6875 C-8.1625 14.6875 -6.5125 14.6875 -4.8125 14.6875 C-4.13291397 12.29030568 -4.13291397 12.29030568 -3.8125 9.6875 C-4.4725 9.0275 -5.1325 8.3675 -5.8125 7.6875 C-6.8025 7.6875 -7.7925 7.6875 -8.8125 7.6875 Z " fill="#DE7C31" transform="translate(61.8125,59.3125)"/>
<path d="M0 0 C0.66 0 1.32 0 2 0 C1.855625 1.26714844 1.71125 2.53429687 1.5625 3.83984375 C1.37474414 5.53903425 1.18725861 7.23825463 1 8.9375 C0.85691406 10.18370117 0.85691406 10.18370117 0.7109375 11.45507812 C-0.76327211 24.98621631 0.79844177 37.45112351 4.125 50.625 C6.44765468 59.97226883 7.35300691 68.779231 4 78 C3.01 78 2.02 78 1 78 C0.8047876 77.45400146 0.6095752 76.90800293 0.40844727 76.34545898 C-0.53676913 73.70822578 -1.48649016 71.07264974 -2.4375 68.4375 C-2.7893335 67.46127686 -3.14116699 66.48505371 -3.50366211 65.47924805 C-5.44787592 60.12743827 -7.45305629 54.80937647 -9.5703125 49.5234375 C-9.98611572 48.48388916 -10.40191895 47.44434082 -10.83032227 46.37329102 C-11.64289408 44.35482205 -12.46352728 42.33957709 -13.29272461 40.32788086 C-13.66147705 39.41143799 -14.03022949 38.49499512 -14.41015625 37.55078125 C-14.74152588 36.74294189 -15.07289551 35.93510254 -15.41430664 35.1027832 C-16 33 -16 33 -15 30 C-14.67 31.65 -14.34 33.3 -14 35 C-13.34 35 -12.68 35 -12 35 C-11.67 36.65 -11.34 38.3 -11 40 C-7.68003538 37.74716687 -5.41556126 35.19199167 -3 32 C-2.67 34.31 -2.34 36.62 -2 39 C-2.08378906 37.74445313 -2.16757813 36.48890625 -2.25390625 35.1953125 C-3.23966811 19.37573039 -3.23966811 19.37573039 -2.18359375 11.87890625 C-1.9476086 9.46382421 -2.50007577 7.35678566 -3 5 C-2.34 4.01 -1.68 3.02 -1 2 C-0.67 1.34 -0.34 0.68 0 0 Z " fill="#E66F23" transform="translate(153,71)"/>
<path d="M0 0 C3.81622656 2.54415104 4.99503007 5.6626223 6.875 9.6875 C9.47545052 15.23272947 12.3115999 20.0971267 16 25 C15.67 25.66 15.34 26.32 15 27 C10.125 24.125 10.125 24.125 9 23 C8.67 24.32 8.34 25.64 8 27 C5.83125748 26.49396008 4.00032373 26.00016187 2 25 C2 25.66 2 26.32 2 27 C0.68 27 -0.64 27 -2 27 C-1.91621094 27.56847656 -1.83242187 28.13695313 -1.74609375 28.72265625 C-1.08089803 33.76635545 -1.0431163 38.00294069 -2 43 C-1.34 43.33 -0.68 43.66 0 44 C0.37890625 46.07421875 0.37890625 46.07421875 0.5625 48.6875 C0.63726562 49.58726563 0.71203125 50.48703125 0.7890625 51.4140625 C0.85867187 52.26742187 0.92828125 53.12078125 1 54 C1.35380644 57.39342704 1.35380644 57.39342704 2 60 C2.66 60.33 3.32 60.66 4 61 C7.42584281 66.7916135 8.57815943 72.35601103 9 79 C9.66 79 10.32 79 11 79 C12.23833716 106.16403693 12.23833716 106.16403693 5 117 C4.34 117 3.68 117 3 117 C3 117.66 3 118.32 3 119 C0.75 121.1875 0.75 121.1875 -2 123 C-4.171875 122.61328125 -4.171875 122.61328125 -6 122 C-5.39671875 121.5153125 -4.7934375 121.030625 -4.171875 120.53125 C1.05701506 116.1457293 4.62281771 112.42233226 7 106 C7.4125 104.96875 7.825 103.9375 8.25 102.875 C10.74763127 89.97057179 7.88968031 79.50434567 3.28125 67.5234375 C-4.5920624 46.96044507 -6.29567175 29.02421528 -2.8515625 7.17578125 C-2.73635254 6.44270752 -2.62114258 5.70963379 -2.50244141 4.9543457 C-2 3 -2 3 0 0 Z " fill="#E55C26" transform="translate(167,58)"/>
<path d="M0 0 C0.66 0 1.32 0 2 0 C3.12940678 5.36468222 3.08820753 10.5507348 3 16 C3 16.66 3 17.32 3 18 C3 21 3 24 3 27 C1.02 27.99 -0.96 28.98 -3 30 C-3 31.32 -3 32.64 -3 34 C-3.99 34 -4.98 34 -6 34 C-6 35.32 -6 36.64 -6 38 C-5.34 38.33 -4.68 38.66 -4 39 C-5.485 39.495 -5.485 39.495 -7 40 C-7.33 40.66 -7.66 41.32 -8 42 C-9.32 42 -10.64 42 -12 42 C-12.495 44.475 -12.495 44.475 -13 47 C-5.08 46.505 -5.08 46.505 3 46 C3.33 44.02 3.66 42.04 4 40 C5.98 39.505 5.98 39.505 8 39 C8.33 39.66 8.66 40.32 9 41 C10.485 40.505 10.485 40.505 12 40 C12 38.02 12 36.04 12 34 C12.99 34 13.98 34 15 34 C15.495 33.01 15.495 33.01 16 32 C15.34331435 35.74858057 14.3123267 39.17969943 13 42.75 C12.4740625 44.19632813 12.4740625 44.19632813 11.9375 45.671875 C11 48 11 48 10 49 C8.07332493 49.08748207 6.14348139 49.10697334 4.21484375 49.09765625 C2.46010742 49.09282227 2.46010742 49.09282227 0.66992188 49.08789062 C-0.56177734 49.07951172 -1.79347656 49.07113281 -3.0625 49.0625 C-4.91584961 49.05573242 -4.91584961 49.05573242 -6.80664062 49.04882812 C-9.87114117 49.03699608 -12.93554721 49.02051173 -16 49 C-17.99236856 43.67263927 -15.6089241 39.37189804 -13.6328125 34.39453125 C-13.27863251 33.47411545 -12.92445251 32.55369965 -12.55953979 31.60539246 C-11.42651455 28.66968831 -10.27592326 25.74122727 -9.125 22.8125 C-8.35693304 20.82921711 -7.58999258 18.84549756 -6.82421875 16.86132812 C-5.42229019 13.23927229 -4.01656074 9.61880821 -2.59814453 6.00317383 C-2.17059372 4.91326897 -2.17059372 4.91326897 -1.73440552 3.80134583 C-1 2 -1 2 0 0 Z " fill="#D6631F" transform="translate(66,179)"/>
<path d="M0 0 C2.4774133 2.21721031 3.70492753 4.18902159 4.9453125 7.26171875 C5.29585693 8.12216797 5.64640137 8.98261719 6.00756836 9.86914062 C6.3763208 10.79919922 6.74507324 11.72925781 7.125 12.6875 C7.51244385 13.64978516 7.8998877 14.61207031 8.29907227 15.60351562 C12.40729866 25.8794578 16.34110199 36.22794611 20.13232422 46.625 C20.84257185 48.56908806 21.57620096 50.50461972 22.31640625 52.4375 C23.02995698 55.11229589 22.98344666 56.44303869 22 59 C18.158478 51.29055378 15.06576493 43.80374388 12.91333008 35.47070312 C11.58595564 30.72299374 9.5901128 28.2974081 6 25 C6 24.34 6 23.68 6 23 C5.34 23 4.68 23 4 23 C4 22.01 4 21.02 4 20 C3.34 20 2.68 20 2 20 C1.505 17.525 1.505 17.525 1 15 C-2.33232217 17.17107323 -2.33232217 17.17107323 -5 20 C-4.8237956 22.03871245 -4.8237956 22.03871245 -4 24 C-3.67 24.99 -3.34 25.98 -3 27 C-4.3125 29.1875 -4.3125 29.1875 -6 31 C-6.66 31 -7.32 31 -8 31 C-7.67 32.65 -7.34 34.3 -7 36 C-7.639375 36.2475 -8.27875 36.495 -8.9375 36.75 C-11.12967143 37.78198638 -11.12967143 37.78198638 -11.625 39.75 C-11.74875 40.4925 -11.8725 41.235 -12 42 C-12.9375 45.1875 -12.9375 45.1875 -14 48 C-14.99 48.495 -14.99 48.495 -16 49 C-16.39171753 50.65391846 -16.72057545 52.32345271 -17 54 C-17.33 54.99 -17.66 55.98 -18 57 C-18.66 57 -19.32 57 -20 57 C-20.268125 58.11375 -20.53625 59.2275 -20.8125 60.375 C-22 64 -22 64 -25 66 C-23.05297608 59.2387048 -20.85001878 52.62718989 -18.3828125 46.0390625 C-17.87426224 44.67133194 -17.87426224 44.67133194 -17.35543823 43.27597046 C-16.64262253 41.36114458 -15.92825758 39.44689476 -15.21240234 37.53320312 C-14.13092843 34.6408553 -13.05533276 31.7463723 -11.98046875 28.8515625 C-1.97424062 1.97424062 -1.97424062 1.97424062 0 0 Z " fill="#E78B30" transform="translate(131,10)"/>
<path d="M0 0 C2.375 1.0625 2.375 1.0625 4 2 C3.34 2.33 2.68 2.66 2 3 C2 3.66 2 4.32 2 5 C3.32 4.67 4.64 4.34 6 4 C6.185625 3.0409375 6.185625 3.0409375 6.375 2.0625 C6.58125 1.381875 6.7875 0.70125 7 0 C7.66 -0.33 8.32 -0.66 9 -1 C9.66 -0.34 10.32 0.32 11 1 C0.59798904 11.15434403 -12.22334483 16.04087818 -26.625 16.125 C-28.41687258 16.09340527 -30.20870541 16.05540086 -32 16 C-31 14 -31 14 -29.14453125 13.25390625 C-28.37496094 13.02574219 -27.60539063 12.79757813 -26.8125 12.5625 C-22.05783837 11.06341879 -17.58554938 9.58554938 -14 6 C-13.01 6 -12.02 6 -11 6 C-10.9175 5.401875 -10.835 4.80375 -10.75 4.1875 C-8.84646237 -1.36448476 -5.09893181 -1.3809607 0 0 Z " fill="#AF2A13" transform="translate(181,213)"/>
<path d="M0 0 C1.65 0.99 3.3 1.98 5 3 C4.52511102 4.98019743 4.04497141 6.95913635 3.5625 8.9375 C3.29566406 10.03964844 3.02882813 11.14179688 2.75390625 12.27734375 C2 15 2 15 1 16 C0.95936168 17.66617115 0.957279 19.33388095 1 21 C0.34 21 -0.32 21 -1 21 C-1 21.66 -1 22.32 -1 23 C-1.66 23.33 -2.32 23.66 -3 24 C-3.433125 25.3303125 -3.433125 25.3303125 -3.875 26.6875 C-5.10287237 30.30290198 -6.69108933 32.96955474 -9 36 C-9.66 36 -10.32 36 -11 36 C-12 33 -12 33 -12 30 C-12.04125 29.071875 -12.0825 28.14375 -12.125 27.1875 C-11.92436885 22.07140565 -9.93092037 17.68937803 -8 13 C-7.01 13.33 -6.02 13.66 -5 14 C-5 13.34 -5 12.68 -5 12 C-5.99 11.67 -6.98 11.34 -8 11 C-6.35 10.67 -4.7 10.34 -3 10 C-3 9.01 -3 8.02 -3 7 C-2.01 6.34 -1.02 5.68 0 5 C-0.33 4.34 -0.66 3.68 -1 3 C-0.67 2.01 -0.34 1.02 0 0 Z " fill="#DF6E21" transform="translate(68,122)"/>
<path d="M0 0 C5.05215523 2.66906314 8.16941171 5.33025194 9.875 10.8125 C10.03748319 14.9558214 8.95147424 17.36622039 7 21 C6.31518555 21.5681543 5.63037109 22.13630859 4.92480469 22.72167969 C2.23934507 25.90035919 2.39738787 28.84811806 2.390625 32.828125 C2.37408875 33.57713074 2.35755249 34.32613647 2.34051514 35.09783936 C2.2920649 37.48197654 2.27067228 39.86547611 2.25 42.25 C2.2218376 43.86982369 2.19190978 45.48961772 2.16015625 47.109375 C2.08630756 51.07286414 2.03671543 55.03599998 2 59 C1.34 59 0.68 59 0 59 C-0.01981934 58.07775635 -0.03963867 57.1555127 -0.06005859 56.20532227 C-0.13871682 52.74414315 -0.22542535 49.28335152 -0.31738281 45.82250977 C-0.3553815 44.33202727 -0.39028196 42.84146211 -0.421875 41.35083008 C-0.59316667 33.36703257 -0.85082519 25.74926038 -3 18 C-4.65 18 -6.3 18 -8 18 C-8.1953125 11.9453125 -8.1953125 11.9453125 -8 10 C-5.42218094 7.42218094 -3.5598161 7.37870384 0 7 C1 8 1 8 1.0625 11.5625 C1.041875 12.696875 1.02125 13.83125 1 15 C1.66 15.33 2.32 15.66 3 16 C2.34 17.98 1.68 19.96 1 22 C3.54777071 20.43450234 4.81760173 19.61847691 5.6796875 16.6953125 C6.35765982 10.05087926 6.35765982 10.05087926 4 4 C-0.76239038 1.61880481 -7.9706717 2.74266792 -13 4 C-9.07469599 -0.10372692 -5.64397274 -0.76724397 0 0 Z M-7 10 C-7 11.65 -7 13.3 -7 15 C-4.525 15.495 -4.525 15.495 -2 16 C-1.34 14.68 -0.68 13.36 0 12 C-0.66 11.01 -1.32 10.02 -2 9 C-4.9254644 8.7763932 -4.9254644 8.7763932 -7 10 Z M-5 19 C-4.34 19.66 -3.68 20.32 -3 21 C-3.66 21 -4.32 21 -5 21 C-5 20.34 -5 19.68 -5 19 Z " fill="#DC7D2C" transform="translate(89,26)"/>
<path d="M0 0 C1.65 0 3.3 0 5 0 C5 8.25 5 16.5 5 25 C5.66 25 6.32 25 7 25 C6.67 26.98 6.34 28.96 6 31 C5.01 31 4.02 31 3 31 C2.505 33.475 2.505 33.475 2 36 C0.68 36 -0.64 36 -2 36 C-2.70778789 31.91055887 -3.02364606 28.9748837 -2 25 C-1.86615659 23.13395382 -1.77666111 21.26447475 -1.71875 19.39453125 C-1.68136719 18.32912109 -1.64398438 17.26371094 -1.60546875 16.16601562 C-1.53478806 13.91863134 -1.46447937 11.67123533 -1.39453125 9.42382812 C-1.35714844 8.36228516 -1.31976563 7.30074219 -1.28125 6.20703125 C-1.25095703 5.2322583 -1.22066406 4.25748535 -1.18945312 3.25317383 C-1 1 -1 1 0 0 Z " fill="#EA7C24" transform="translate(83,60)"/>
<path d="M0 0 C0.99 1.485 0.99 1.485 2 3 C2.99 3.33 3.98 3.66 5 4 C7.30163882 7.45245824 7.34490322 8.94738713 7 13 C6.34 13.66 5.68 14.32 5 15 C4.67 14.34 4.34 13.68 4 13 C2.35 13 0.7 13 -1 13 C-1.33 11.02 -1.66 9.04 -2 7 C-4.31 6.34 -6.62 5.68 -9 5 C-9 7.97 -9 10.94 -9 14 C-7.68 14.66 -6.36 15.32 -5 16 C-5.66 16 -6.32 16 -7 16 C-7 16.66 -7 17.32 -7 18 C-9.8125 18.3125 -9.8125 18.3125 -13 18 C-15.52631402 15.22105458 -15.9698543 13.21101992 -16.5 9.5 C-15.86972886 5.08810203 -14.36476949 3.80397457 -11 1 C-10.34 0.34 -9.68 -0.32 -9 -1 C-5.45630005 -2.4663586 -3.33112925 -1.75322592 0 0 Z " fill="#ED8027" transform="translate(60,61)"/>
<path d="M0 0 C4.61028298 8.67817973 5.68203397 19.78625155 3 29.25 C2.67 30.1575 2.34 31.065 2 32 C1.01 32 0.02 32 -1 32 C-2.31848524 28.43968664 -3.62872561 24.87639334 -4.9375 21.3125 C-5.31068359 20.30509766 -5.68386719 19.29769531 -6.06835938 18.25976562 C-6.60493164 16.79506836 -6.60493164 16.79506836 -7.15234375 15.30078125 C-7.48226318 14.40528564 -7.81218262 13.50979004 -8.15209961 12.5871582 C-8.97728259 10.06931657 -9.53784393 7.60656021 -10 5 C-9.01 5 -8.02 5 -7 5 C-6.67 6.32 -6.34 7.64 -6 9 C-2.9254644 8.2236068 -2.9254644 8.2236068 -1 6 C-0.60235737 4.01178687 -0.26224651 2.01055661 0 0 Z " fill="#CC6123" transform="translate(155,117)"/>
<path d="M0 0 C0 5.94 0 11.88 0 18 C-0.66 18 -1.32 18 -2 18 C-2 22.95 -2 27.9 -2 33 C-1.67 33 -1.34 33 -1 33 C-0.75 40.625 -0.75 40.625 -3 44 C-4.485 44.495 -4.485 44.495 -6 45 C-6 30.15 -6 15.3 -6 0 C-4 -1 -4 -1 0 0 Z " fill="#E06F1B" transform="translate(58,84)"/>
<path d="M0 0 C0.33 0 0.66 0 1 0 C1.33 7.92 1.66 15.84 2 24 C2.66 24.33 3.32 24.66 4 25 C4.37890625 27.07421875 4.37890625 27.07421875 4.5625 29.6875 C4.63726562 30.58726563 4.71203125 31.48703125 4.7890625 32.4140625 C4.85867187 33.26742187 4.92828125 34.12078125 5 35 C5.35380644 38.39342704 5.35380644 38.39342704 6 41 C6.66 41.33 7.32 41.66 8 42 C11.42584281 47.7916135 12.57815943 53.35601103 13 60 C13.66 60 14.32 60 15 60 C16.23833716 87.16403693 16.23833716 87.16403693 9 98 C8.34 98 7.68 98 7 98 C7 98.66 7 99.32 7 100 C4.75 102.1875 4.75 102.1875 2 104 C-0.171875 103.61328125 -0.171875 103.61328125 -2 103 C-1.39671875 102.5153125 -0.7934375 102.030625 -0.171875 101.53125 C5.05701506 97.1457293 8.62281771 93.42233226 11 87 C11.4125 85.96875 11.825 84.9375 12.25 83.875 C14.74763127 70.97057179 11.88968031 60.50434567 7.28125 48.5234375 C1.59627189 33.67579066 -4.80342365 15.95976246 0 0 Z " fill="#C75834" transform="translate(163,77)"/>
<path d="M0 0 C0.33 0 0.66 0 1 0 C1.33 15.18 1.66 30.36 2 46 C2.99 46 3.98 46 5 46 C5.495 43.03 5.495 43.03 6 40 C7.15941038 43.47823115 6.70820884 45.45895578 6 49 C4.515 49.495 4.515 49.495 3 50 C3.33 50.99 3.66 51.98 4 53 C2.515 53.495 2.515 53.495 1 54 C0.67 54.66 0.34 55.32 0 56 C-3.96 52.535 -3.96 52.535 -8 49 C-7.67 48.34 -7.34 47.68 -7 47 C-6.67 46.01 -6.34 45.02 -6 44 C-5.34 44 -4.68 44 -4 44 C-2.64560332 41.29120665 -2.93498549 38.99066732 -3 36 C-3.33 36 -3.66 36 -4 36 C-4.02691685 33.54159395 -4.04679802 31.08348118 -4.0625 28.625 C-4.07087891 27.92632812 -4.07925781 27.22765625 -4.08789062 26.5078125 C-4.11328125 21.2265625 -4.11328125 21.2265625 -3 19 C-2.34 19 -1.68 19 -1 19 C-0.67 12.73 -0.34 6.46 0 0 Z " fill="#D26D2A" transform="translate(59,83)"/>
<path d="M0 0 C2.12137694 3.18206541 2.26479552 4.1543037 1.59765625 7.7890625 C-1.57960142 19.54283922 -8.12061173 28.92676503 -16 38 C-17.14304512 34.57086463 -17.0321597 33.41406669 -16 30 C-14.125 26.6875 -14.125 26.6875 -12 24 C-11.01 24 -10.02 24 -9 24 C-9.57344937 21.13275314 -9.8614515 20.1385485 -12 18 C-11.25 15.5625 -11.25 15.5625 -10 13 C-8.0625 12.3125 -8.0625 12.3125 -6 12 C-5.01 11.34 -4.02 10.68 -3 10 C-3.66 8.02 -4.32 6.04 -5 4 C-3.35 2.68 -1.7 1.36 0 0 Z " fill="#B4341E" transform="translate(210,175)"/>
<path d="M0 0 C0.33 0 0.66 0 1 0 C0.46934568 6.27993282 -1.05636617 11.4743364 -3.37890625 17.3125 C-3.71043198 18.16682617 -4.0419577 19.02115234 -4.38352966 19.90136719 C-5.4346685 22.60432659 -6.49834267 25.30214314 -7.5625 28 C-8.28143593 29.84212149 -8.99954336 31.68456654 -9.71679688 33.52734375 C-11.46830599 38.02202769 -13.23106728 42.51214631 -15 47 C-17.33061852 43.50407222 -17.70295038 41.15869464 -18 37 C-17.34 36.01 -16.68 35.02 -16 34 C-15.01 34.33 -14.02 34.66 -13 35 C-10.82069499 29.45939404 -9.86772793 25.94442834 -11 20 C-9.6875 18.25 -9.6875 18.25 -8 17 C-7.34 16.34 -6.68 15.68 -6 15 C-6 14.34 -6 13.68 -6 13 C-6.66 13 -7.32 13 -8 13 C-6.63016497 9.83884224 -6.0109362 9.0072908 -3 7 C-3.33 5.68 -3.66 4.36 -4 3 C-3.34 2.67 -2.68 2.34 -2 2 C-1.34 1.34 -0.68 0.68 0 0 Z " fill="#DA7634" transform="translate(129,85)"/>
<path d="M0 0 C2.4774133 2.21721031 3.70492753 4.18902159 4.9453125 7.26171875 C5.29585693 8.12216797 5.64640137 8.98261719 6.00756836 9.86914062 C6.3763208 10.79919922 6.74507324 11.72925781 7.125 12.6875 C7.51244385 13.64978516 7.8998877 14.61207031 8.29907227 15.60351562 C12.40729866 25.8794578 16.34110199 36.22794611 20.13232422 46.625 C20.84257185 48.56908806 21.57620096 50.50461972 22.31640625 52.4375 C23.02995698 55.11229589 22.98344666 56.44303869 22 59 C17.85897581 50.68949097 14.75053084 42.49142815 12.08984375 33.625 C10.31177595 26.52009724 10.31177595 26.52009724 6.4765625 20.55078125 C4.70553496 18.69073381 4.4852771 17.4957108 4 15 C3.49266847 13.4122889 2.97154818 11.82892506 2.4375 10.25 C2.16808594 9.45078125 1.89867187 8.6515625 1.62109375 7.828125 C1.41613281 7.22484375 1.21117187 6.6215625 1 6 C-0.32 7.32 -1.64 8.64 -3 10 C-2.25 2.25 -2.25 2.25 0 0 Z " fill="#DE8D40" transform="translate(131,10)"/>
<path d="M0 0 C0.88128994 3.15981065 1.02104868 4.79015584 -0.109375 7.8984375 C-0.36976562 8.62546875 -0.63015625 9.3525 -0.8984375 10.1015625 C-1.17945312 10.85179688 -1.46046875 11.60203125 -1.75 12.375 C-2.01554687 13.1175 -2.28109375 13.86 -2.5546875 14.625 C-4.11483047 18.91160642 -5.94914707 22.92133742 -8 27 C-8.54521179 28.61039408 -9.04856072 30.23584547 -9.5 31.875 C-10.41718918 35.08516213 -11.41349496 38.2014021 -12.625 41.3125 C-13.72434488 44.26074309 -14.51668892 46.90680912 -15 50 C-15.66 50 -16.32 50 -17 50 C-17.20496094 50.68707031 -17.40992187 51.37414062 -17.62109375 52.08203125 C-17.89050781 52.98308594 -18.15992187 53.88414062 -18.4375 54.8125 C-18.70433594 55.70582031 -18.97117187 56.59914062 -19.24609375 57.51953125 C-19.80387873 59.35473055 -20.39344575 61.18033726 -21 63 C-21.66 63 -22.32 63 -23 63 C-22.938125 63.78375 -22.87625 64.5675 -22.8125 65.375 C-22.874375 66.24125 -22.93625 67.1075 -23 68 C-24.485 68.99 -24.485 68.99 -26 70 C-23.92059549 62.66321774 -21.42089316 55.55546455 -18.69140625 48.4375 C-18.28341293 47.36556396 -17.87541962 46.29362793 -17.45506287 45.18920898 C-16.16082399 41.79154398 -14.86164404 38.39579201 -13.5625 35 C-12.69435738 32.72147 -11.82651618 30.44282513 -10.95898438 28.1640625 C-10.12006165 25.96343872 -9.28087763 23.76291454 -8.44140625 21.5625 C-8.05586075 20.55179443 -7.67031525 19.54108887 -7.27308655 18.49975586 C-4.90463791 12.3101912 -2.48048344 6.14552922 0 0 Z " fill="#CB7538" transform="translate(93,108)"/>
<path d="M0 0 C3 1 3 1 4 3 C4.09868424 5.41087466 4.13985807 7.79213772 4.1328125 10.203125 C4.13376923 10.91853455 4.13472595 11.63394409 4.13571167 12.37103271 C4.13639277 13.88749275 4.13454335 15.4039557 4.13037109 16.92041016 C4.12505313 19.22695597 4.1303021 21.53330426 4.13671875 23.83984375 C4.13605734 25.31510459 4.13477489 26.79036531 4.1328125 28.265625 C4.13483673 28.9502179 4.13686096 29.63481079 4.13894653 30.34014893 C4.11968883 34.33430803 3.721223 38.07626267 3 42 C2.96377667 43.66627298 2.95100158 45.33405374 3 47 C4.32 47 5.64 47 7 47 C7.33 45.35 7.66 43.7 8 42 C8.66 42 9.32 42 10 42 C9.125 47.75 9.125 47.75 8 50 C7.34 50 6.68 50 6 50 C5.67 50.66 5.34 51.32 5 52 C4.01 51.67 3.02 51.34 2 51 C0.68 51 -0.64 51 -2 51 C-2.33 53.31 -2.66 55.62 -3 58 C-3.66 58 -4.32 58 -5 58 C-4.51470281 52.3607238 -3.43536299 48.51244871 -0.9375 43.375 C2.559216 35.25003725 2.55577789 26.95212713 2.5 18.25 C2.49799591 17.5771698 2.49599182 16.9043396 2.493927 16.21112061 C2.74796375 7.76235755 2.74796375 7.76235755 0 0 Z " fill="#DE7C2E" transform="translate(78,49)"/>
<path d="M0 0 C3.26843352 2.17895568 4.03171608 3.49587839 5.75 6.9375 C6.19859375 7.81277344 6.6471875 8.68804687 7.109375 9.58984375 C8 12 8 12 7 15 C6.34 14.67 5.68 14.34 5 14 C1.75150023 15.72226496 1.75150023 15.72226496 1 19 C-1.0625 20.1875 -1.0625 20.1875 -3 21 C-4.78099105 14.03794407 -2.9876755 7.78958462 -1 1 C-0.67 0.67 -0.34 0.34 0 0 Z " fill="#D65D2F" transform="translate(167,58)"/>
<path d="M0 0 C3.20008327 2.46863567 4.88973538 3.79420614 6.1875 7.6875 C6.22704234 10.02049825 6.23151732 12.35458189 6.1875 14.6875 C3.68451566 11.74921403 2.71819061 9.50847239 2.1875 5.6875 C1.2284375 5.5328125 1.2284375 5.5328125 0.25 5.375 C-0.430625 5.148125 -1.11125 4.92125 -1.8125 4.6875 C-2.1425 3.6975 -2.4725 2.7075 -2.8125 1.6875 C-5.29163216 0.53647435 -6.60054258 0.63315194 -9.25 1.3125 C-12.52039877 3.06734812 -14.52634248 4.74815461 -16.8125 7.6875 C-17.37321123 11.61247862 -17.20849297 13.85780045 -15.5 17.4375 C-14.04463658 19.37798456 -12.60826776 21.06275774 -10.8125 22.6875 C-14.44785761 22.48553569 -15.6119786 21.90427989 -18.125 19.1875 C-20.22899441 14.82365975 -20.80871446 11.44719133 -19.8125 6.6875 C-18.13391211 3.56253994 -15.82578387 1.45619811 -13 -0.6875 C-8.34873798 -2.01643201 -4.32840668 -2.01992312 0 0 Z " fill="#D3813D" transform="translate(61.8125,59.3125)"/>
<path d="M0 0 C0.99 0.66 1.98 1.32 3 2 C3.99 1.67 4.98 1.34 6 1 C7.6224792 4.61937668 8.21335933 6.3302659 6.98828125 10.17578125 C6.43527344 11.21089844 5.88226563 12.24601563 5.3125 13.3125 C4.77238281 14.36050781 4.23226562 15.40851563 3.67578125 16.48828125 C2 19 2 19 -1 20 C-2 17 -2 17 -2 14 C-2.04125 13.071875 -2.0825 12.14375 -2.125 11.1875 C-1.99114771 7.77426651 -1.16126516 5.19347919 0 2 C0 1.34 0 0.68 0 0 Z " fill="#D7651C" transform="translate(58,138)"/>
<path d="M0 0 C1.22156872 3.66470616 0.62833432 4.63237688 -0.8125 8.125 C-1.16957031 9.01445312 -1.52664062 9.90390625 -1.89453125 10.8203125 C-3 13 -3 13 -5 14 C-6.52148326 14.08372659 -8.04655778 14.10730027 -9.5703125 14.09765625 C-10.46621094 14.09443359 -11.36210938 14.09121094 -12.28515625 14.08789062 C-13.22230469 14.07951172 -14.15945312 14.07113281 -15.125 14.0625 C-16.06988281 14.05798828 -17.01476562 14.05347656 -17.98828125 14.04882812 C-20.3255477 14.03702375 -22.66278169 14.01908799 -25 14 C-25.99 17.3 -26.98 20.6 -28 24 C-28.66 23.67 -29.32 23.34 -30 23 C-29.34 20.36 -28.68 17.72 -28 15 C-28.66 15 -29.32 15 -30 15 C-30 14.01 -30 13.02 -30 12 C-24.59685423 11.26737007 -19.63987849 11.04788118 -14.1875 11.3125 C-9.93591926 11.53287503 -9.93591926 11.53287503 -6.3515625 9.66796875 C-5.15520931 7.83683493 -5.15520931 7.83683493 -4 5 C-3.34 5 -2.68 5 -2 5 C-1.34 3.35 -0.68 1.7 0 0 Z " fill="#B95D2F" transform="translate(119,166)"/>
<path d="M0 0 C6.26721763 -0.48209366 6.26721763 -0.48209366 9.375 1.5625 C11.53019221 4.79528831 11.86649869 7.12846196 12 11 C11.3125 14.3125 11.3125 14.3125 10 17 C8.02 17.99 8.02 17.99 6 19 C5.67 14.38 5.34 9.76 5 5 C3.02 5 1.04 5 -1 5 C-0.67 3.35 -0.34 1.7 0 0 Z " fill="#F48B2A" transform="translate(84,29)"/>
<path d="M0 0 C1.32 0 2.64 0 4 0 C5.33500455 5.34001821 4.512545 8.83955235 3 14 C-3.435 14.495 -3.435 14.495 -10 15 C-8 11 -8 11 -5 10 C-5 9.34 -5 8.68 -5 8 C-4.34 8 -3.68 8 -3 8 C-2.690625 7.05125 -2.38125 6.1025 -2.0625 5.125 C-1 2 -1 2 0 0 Z " fill="#D1581C" transform="translate(175,167)"/>
<path d="M0 0 C3.24797938 3.05229007 5.23642065 6.63074472 7.375 10.5 C7.97380981 11.5818457 7.97380981 11.5818457 8.5847168 12.68554688 C13.15206858 21.01583177 16.93263197 29.03052013 19.3125 38.25 C19.48434814 38.91193359 19.65619629 39.57386719 19.83325195 40.25585938 C20.87057151 44.57630888 21.15503479 48.56715355 21 53 C18.60541252 49.40811878 18.25248127 46.47267629 17.5625 42.27734375 C17.16341425 39.81880229 17.16341425 39.81880229 15 38 C15.66 38 16.32 38 17 38 C16.71125 37.22914063 16.4225 36.45828125 16.125 35.6640625 C15.75375 34.66117188 15.3825 33.65828125 15 32.625 C14.62875 31.62726563 14.2575 30.62953125 13.875 29.6015625 C13 27 13 27 13 25 C12.01 25.33 11.02 25.66 10 26 C10.33 25.01 10.66 24.02 11 23 C10.09622527 20.72913086 10.09622527 20.72913086 8.6875 18.4375 C8.23761719 17.65246094 7.78773438 16.86742188 7.32421875 16.05859375 C6.03343767 13.89200531 6.03343767 13.89200531 4 12 C3.875 9.375 3.875 9.375 4 7 C3.34 7 2.68 7 2 7 C0.5393715 4.35261084 0 3.10551666 0 0 Z " fill="#D15738" transform="translate(193,100)"/>
<path d="M0 0 C1.34581972 4.03745915 0.19157055 5.72155625 -1.375 9.625 C-1.83648437 10.79289063 -2.29796875 11.96078125 -2.7734375 13.1640625 C-4 16 -4 16 -5 17 C-6.92667507 17.08748207 -8.85651861 17.10697334 -10.78515625 17.09765625 C-11.95498047 17.09443359 -13.12480469 17.09121094 -14.33007812 17.08789062 C-16.17762695 17.07532227 -16.17762695 17.07532227 -18.0625 17.0625 C-19.91584961 17.05573242 -19.91584961 17.05573242 -21.80664062 17.04882812 C-24.87114117 17.03699608 -27.93554721 17.02051173 -31 17 C-31 16.67 -31 16.34 -31 16 C-21.1 15.505 -21.1 15.505 -11 15 C-11 13.68 -11 12.36 -11 11 C-11 10.01 -11 9.02 -11 8 C-9.68 7.67 -8.36 7.34 -7 7 C-6.67 7.66 -6.34 8.32 -6 9 C-5.01 8.67 -4.02 8.34 -3 8 C-3 6.02 -3 4.04 -3 2 C-2.01 2 -1.02 2 0 2 C0 1.34 0 0.68 0 0 Z " fill="#BB6229" transform="translate(81,211)"/>
<path d="M0 0 C0 5.94 0 11.88 0 18 C-1.65 17.67 -3.3 17.34 -5 17 C-6.53266582 13.93466836 -6.10276471 10.73245728 -6.0625 7.375 C-6.05798828 6.66859375 -6.05347656 5.9621875 -6.04882812 5.234375 C-6.03703875 3.48954725 -6.01910324 1.744763 -6 0 C-4 -1 -4 -1 0 0 Z " fill="#E67520" transform="translate(58,84)"/>
<path d="M0 0 C2 2 2 2 2 5 C2.66 5 3.32 5 4 5 C5.23833716 32.16403693 5.23833716 32.16403693 -2 43 C-2.66 43 -3.32 43 -4 43 C-4 43.66 -4 44.32 -4 45 C-6.25 47.1875 -6.25 47.1875 -9 49 C-11.171875 48.61328125 -11.171875 48.61328125 -13 48 C-12.39671875 47.5153125 -11.7934375 47.030625 -11.171875 46.53125 C-5.94298494 42.1457293 -2.37718229 38.42233226 0 32 C0.4125 30.96875 0.825 29.9375 1.25 28.875 C3.12243885 19.20073261 2.18064784 9.54033429 0 0 Z " fill="#B95730" transform="translate(174,132)"/>
<path d="M0 0 C0.66 0 1.32 0 2 0 C1.855625 1.26714844 1.71125 2.53429687 1.5625 3.83984375 C1.37474414 5.53903425 1.18725861 7.23825463 1 8.9375 C0.90460938 9.76830078 0.80921875 10.59910156 0.7109375 11.45507812 C-0.22637271 20.05824688 -0.05920744 28.44012588 0.5 37.0625 C0.54769531 37.83271484 0.59539062 38.60292969 0.64453125 39.39648438 C0.76055568 41.26447766 0.87991589 43.13226329 1 45 C-4.37571986 36.93642021 -3.14556592 25.4202501 -2.36987305 16.13061523 C-2.11519276 12.99536508 -1.94713377 10.25452812 -2.58984375 7.16015625 C-3 5 -3 5 -1 2 C-0.67 1.34 -0.34 0.68 0 0 Z " fill="#D87C35" transform="translate(153,71)"/>
<path d="M0 0 C1 2 1 2 -0.1796875 5.66796875 C-0.73747691 7.17720277 -1.30293977 8.68361721 -1.875 10.1875 C-2.44141073 11.67853098 -3.0014077 13.17201556 -3.5546875 14.66796875 C-3.93343018 15.66219849 -3.93343018 15.66219849 -4.31982422 16.67651367 C-5.2070288 19.70721217 -5.553407 22.87384901 -6 26 C1.26 26 8.52 26 16 26 C16 26.33 16 26.66 16 27 C7.42 27 -1.16 27 -10 27 C-9.05290295 21.31741771 -7.55998045 16.59559942 -5.5625 11.25 C-5.24990234 10.38761719 -4.93730469 9.52523437 -4.61523438 8.63671875 C-4.31037109 7.81300781 -4.00550781 6.98929688 -3.69140625 6.140625 C-3.41498291 5.39329102 -3.13855957 4.64595703 -2.85375977 3.87597656 C-2 2 -2 2 0 0 Z " fill="#D17439" transform="translate(59,200)"/>
<path d="M0 0 C2.58772586 3.8815888 1.87719799 5.53426477 1 10 C0.67 10.99 0.34 11.98 0 13 C-0.66 13 -1.32 13 -2 13 C-2 13.66 -2 14.32 -2 15 C-3.65 15 -5.3 15 -7 15 C-7.66 16.32 -8.32 17.64 -9 19 C-9.99 18.67 -10.98 18.34 -12 18 C-11.25 15.5625 -11.25 15.5625 -10 13 C-8.0625 12.3125 -8.0625 12.3125 -6 12 C-5.01 11.34 -4.02 10.68 -3 10 C-3.66 8.02 -4.32 6.04 -5 4 C-3.35 2.68 -1.7 1.36 0 0 Z " fill="#C43619" transform="translate(210,175)"/>
<path d="M0 0 C0.45375 0.474375 0.9075 0.94875 1.375 1.4375 C2.93258204 3.09027808 2.93258204 3.09027808 5 4 C4.01 5.485 4.01 5.485 3 7 C2.34 6.67 1.68 6.34 1 6 C1.3403125 7.6396875 1.3403125 7.6396875 1.6875 9.3125 C2 13 2 13 0.6875 14.9375 C-1 16 -1 16 -3 16 C-3 15.34 -3 14.68 -3 14 C-3.66 13.67 -4.32 13.34 -5 13 C-5 10.36 -5 7.72 -5 5 C-4.34 5 -3.68 5 -3 5 C-1.3553326 2.53673288 -1.3553326 2.53673288 0 0 Z " fill="#D35F1D" transform="translate(46,180)"/>
<path d="M0 0 C1.32 0 2.64 0 4 0 C4 3.63 4 7.26 4 11 C2.02 11.99 0.04 12.98 -2 14 C-4.05257931 10.55166676 -5.0632763 8.68338409 -4.6875 4.625 C-4.460625 3.75875 -4.23375 2.8925 -4 2 C-2.02 2.495 -2.02 2.495 0 3 C0 2.01 0 1.02 0 0 Z " fill="#E06E20" transform="translate(151,113)"/>
<path d="M0 0 C6.49868518 5.35185839 10.72142237 13.7196877 12 22 C11.236875 21.67 10.47375 21.34 9.6875 21 C7.00930865 19.82563314 7.00930865 19.82563314 4 20 C4.01160156 19.25234375 4.02320313 18.5046875 4.03515625 17.734375 C4.04417969 16.74953125 4.05320313 15.7646875 4.0625 14.75 C4.07410156 13.77546875 4.08570313 12.8009375 4.09765625 11.796875 C4.01195577 9.34241322 3.70706066 7.33831086 3 5 C2.34 5 1.68 5 1 5 C0.67 3.35 0.34 1.7 0 0 Z " fill="#D26026" transform="translate(147,158)"/>
<path d="M0 0 C1.9375 0.625 1.9375 0.625 4 2 C4.6875 4.375 4.6875 4.375 5 8 C5.09023437 9.010625 5.18046875 10.02125 5.2734375 11.0625 C5.53331627 14.04057024 5.77330833 17.01924566 6 20 C5.34 20 4.68 20 4 20 C3.67 21.32 3.34 22.64 3 24 C2.34 24 1.68 24 1 24 C0.67 25.65 0.34 27.3 0 29 C-0.66 29 -1.32 29 -2 29 C-0.125 23.25 -0.125 23.25 1 21 C1.0982189 18.58497061 1.12973926 16.16702119 1.125 13.75 C1.12757813 12.44546875 1.13015625 11.1409375 1.1328125 9.796875 C1.01490662 6.42615405 0.64650434 3.30435553 0 0 Z " fill="#BB5C2E" transform="translate(150,199)"/>
<path d="M0 0 C5.05215523 2.66906314 8.16941171 5.33025194 9.875 10.8125 C10.03942241 15.00527156 8.86473339 17.27053322 7 21 C6.67 21 6.34 21 6 21 C6.02320312 20.19175781 6.04640625 19.38351563 6.0703125 18.55078125 C6.08835937 17.48214844 6.10640625 16.41351563 6.125 15.3125 C6.14820312 14.25675781 6.17140625 13.20101562 6.1953125 12.11328125 C5.9970075 8.9522995 5.42666604 6.81257019 4 4 C-0.76239038 1.61880481 -7.9706717 2.74266792 -13 4 C-9.07469599 -0.10372692 -5.64397274 -0.76724397 0 0 Z " fill="#DA8D40" transform="translate(89,26)"/>
<path d="M0 0 C0.66 0.33 1.32 0.66 2 1 C1.11956522 11.42620137 1.11956522 11.42620137 -1 16 C-3.125 17.375 -3.125 17.375 -5 18 C-5.33 17.34 -5.66 16.68 -6 16 C-6.99 16 -7.98 16 -9 16 C-8.67 14.02 -8.34 12.04 -8 10 C-5 9 -5 9 -3 9 C-3 7.35 -3 5.7 -3 4 C-2.34 4 -1.68 4 -1 4 C-0.67 2.68 -0.34 1.36 0 0 Z " fill="#D96319" transform="translate(79,203)"/>
<path d="M0 0 C4.03809068 4.61496078 6 9.92852877 6 16 C6.99 16.66 7.98 17.32 9 18 C9.1875 20.625 9.1875 20.625 9 23 C8.01 22.34 7.02 21.68 6 21 C6 20.34 6 19.68 6 19 C5.34 19 4.68 19 4 19 C4 18.01 4 17.02 4 16 C3.34 16 2.68 16 2 16 C1.67 14.35 1.34 12.7 1 11 C0.01 10.67 -0.98 10.34 -2 10 C-1.34 9.34 -0.68 8.68 0 8 C-0.29259485 5.99363529 -0.62633887 3.99285937 -1 2 C-0.67 1.34 -0.34 0.68 0 0 Z " fill="#F28D25" transform="translate(131,14)"/>
<path d="M0 0 C0.66 0 1.32 0 2 0 C2 0.66 2 1.32 2 2 C2.66 2.33 3.32 2.66 4 3 C3.38170447 8.07002337 2.13290367 11.02322476 0 16 C5.61 16 11.22 16 17 16 C17 16.33 17 16.66 17 17 C11.06 17 5.12 17 -1 17 C-2 12 -2 12 -2 9 C-1.34 9 -0.68 9 0 9 C-0.37125 8.2575 -0.7425 7.515 -1.125 6.75 C-2 4 -2 4 -1.125 1.6875 C-0.75375 1.130625 -0.3825 0.57375 0 0 Z " fill="#CF6729" transform="translate(105,139)"/>
<path d="M0 0 C3 1 3 1 4 3 C4.09825587 5.36425876 4.13078246 7.73135754 4.1328125 10.09765625 C4.13376923 10.80595078 4.13472595 11.5142453 4.13571167 12.2440033 C4.13639303 13.74787484 4.13454182 15.25174932 4.13037109 16.75561523 C4.12507752 19.02920386 4.13028852 21.30258987 4.13671875 23.57617188 C4.13969386 30.77860915 4.02181895 37.85537699 3 45 C1.35 45.66 -0.3 46.32 -2 47 C-1.79503906 46.39671875 -1.59007813 45.7934375 -1.37890625 45.171875 C-1.10949219 44.37265625 -0.84007813 43.5734375 -0.5625 42.75 C-0.29566406 41.96109375 -0.02882813 41.1721875 0.24609375 40.359375 C2.2935763 33.95170939 2.18608671 27.77694954 2.18530273 21.10058594 C2.18749272 19.00695571 2.20568002 16.91384987 2.22460938 14.8203125 C2.2275431 13.48437679 2.22952804 12.1484386 2.23046875 10.8125 C2.23663208 8.99685547 2.23663208 8.99685547 2.24291992 7.14453125 C2.01263313 4.16353235 1.56680019 2.50253347 0 0 Z " fill="#CC7933" transform="translate(78,49)"/>
<path d="M0 0 C0.66 0.33 1.32 0.66 2 1 C2 3.31 2 5.62 2 8 C1.34 8 0.68 8 0 8 C-1.1161656 11.71429898 -1.3124195 15.39161508 -1.5625 19.25 C-1.64628906 20.51328125 -1.73007813 21.7765625 -1.81640625 23.078125 C-1.87699219 24.04234375 -1.93757812 25.0065625 -2 26 C-2.66 25.67 -3.32 25.34 -4 25 C-4.20382481 17.0395089 -4.30082703 9.66942342 -2 2 C-1.34 1.34 -0.68 0.68 0 0 Z " fill="#CA652F" transform="translate(133,132)"/>
<path d="M0 0 C1.54588665 3.93803103 0.37783912 6.45553219 -1.08984375 10.296875 C-1.54423828 11.50214844 -1.99863281 12.70742187 -2.46679688 13.94921875 C-2.95679576 15.21623693 -3.44703319 16.48316288 -3.9375 17.75 C-4.42482899 19.03217212 -4.91116874 20.3147207 -5.39648438 21.59765625 C-6.58796486 24.73561475 -7.7894553 27.86935734 -9 31 C-9.66 29.68 -10.32 28.36 -11 27 C-10.34 27 -9.68 27 -9 27 C-8.87625 25.948125 -8.7525 24.89625 -8.625 23.8125 C-8 20 -8 20 -6.9375 17.375 C-5.90247867 14.75294596 -5.84040221 12.79296141 -6 10 C-5.01 9.67 -4.02 9.34 -3 9 C-2.87625 8.2575 -2.7525 7.515 -2.625 6.75 C-2.04513299 4.19858515 -1.26291261 2.2732427 0 0 Z " fill="#D77A38" transform="translate(79,110)"/>
<path d="M0 0 C0.33 1.65 0.66 3.3 1 5 C0.01 5.33 -0.98 5.66 -2 6 C-2.99 7.485 -2.99 7.485 -4 9 C-4.99 9 -5.98 9 -7 9 C-7.103125 9.639375 -7.20625 10.27875 -7.3125 10.9375 C-7.539375 11.618125 -7.76625 12.29875 -8 13 C-8.99 13.33 -9.98 13.66 -11 14 C-10.45276317 10.62537285 -9.9451 8.91765 -8 6 C-7.87625 5.154375 -7.7525 4.30875 -7.625 3.4375 C-7 1 -7 1 -5.125 -0.375 C-3 -1 -3 -1 0 0 Z " fill="#D4601C" transform="translate(59,162)"/>
<path d="M0 0 C2.1385485 2.1385485 2.42655063 3.13275314 3 6 C2.34 6 1.68 6 1 6 C0.855625 6.763125 0.71125 7.52625 0.5625 8.3125 C0 11 0 11 -1 14 C-1.66 14 -2.32 14 -3 14 C-3.268125 15.11375 -3.53625 16.2275 -3.8125 17.375 C-5 21 -5 21 -8 23 C-5.81659819 15.13620323 -3.00714974 7.58324716 0 0 Z " fill="#DE8438" transform="translate(114,53)"/>
<path d="M0 0 C0.66 0.99 1.32 1.98 2 3 C1.67 3.99 1.34 4.98 1 6 C0.34 6 -0.32 6 -1 6 C-1.66 9.3 -2.32 12.6 -3 16 C-3.66 16 -4.32 16 -5 16 C-5 18.64 -5 21.28 -5 24 C-5.66 24 -6.32 24 -7 24 C-7.33 25.65 -7.66 27.3 -8 29 C-8.66 29 -9.32 29 -10 29 C-10.33 29.66 -10.66 30.32 -11 31 C-10.3339303 27.0577597 -9.16360451 23.54698373 -7.71484375 19.82421875 C-7.26689453 18.66728516 -6.81894531 17.51035156 -6.35742188 16.31835938 C-5.88884766 15.12017578 -5.42027344 13.92199219 -4.9375 12.6875 C-4.46505859 11.46998047 -3.99261719 10.25246094 -3.50585938 8.99804688 C-2.34085239 5.9972713 -1.17211211 2.99800584 0 0 Z " fill="#D27E3D" transform="translate(105,77)"/>
<path d="M0 0 C0.66 0 1.32 0 2 0 C2 0.99 2 1.98 2 3 C5.63 2.01 9.26 1.02 13 0 C9.45824823 4.72233569 6.47289385 6.15972746 1 8 C-2.0625 8.25 -2.0625 8.25 -4 8 C-3.625 6.0625 -3.625 6.0625 -3 4 C-2.34 3.67 -1.68 3.34 -1 3 C-0.67 2.01 -0.34 1.02 0 0 Z " fill="#CF5724" transform="translate(154,219)"/>
<path d="M0 0 C1.46726798 3.81489674 0.43336419 6.29011622 -1 10 C-1.66 10 -2.32 10 -3 10 C-3 10.66 -3 11.32 -3 12 C-4.32 11.67 -5.64 11.34 -7 11 C-7 9 -7 9 -5 7 C-5.33 6.01 -5.66 5.02 -6 4 C-6.99 4.495 -6.99 4.495 -8 5 C-8 3.68 -8 2.36 -8 1 C-6.865625 1.020625 -5.73125 1.04125 -4.5625 1.0625 C-1.18424326 1.41577477 -1.18424326 1.41577477 0 0 Z " fill="#D46725" transform="translate(122,156)"/>
<path d="M0 0 C-8.04264474 3.46511403 -15.2046484 5.80611449 -24 6 C-21.74113183 3.43080808 -19.79979195 2.31999869 -16.5625 1.25 C-15.80066406 0.98703125 -15.03882813 0.7240625 -14.25390625 0.453125 C-11.76799672 -0.04664191 -10.40632807 0.33825978 -8 1 C-2.93258427 -0.97752809 -2.93258427 -0.97752809 0 0 Z " fill="#9D2E1D" transform="translate(180,223)"/>
<path d="M0 0 C0.33 0 0.66 0 1 0 C0.47606294 5.86809507 -0.76108858 10.54873741 -3 16 C-3.99 15.67 -4.98 15.34 -6 15 C-6 14.34 -6 13.68 -6 13 C-6.66 13 -7.32 13 -8 13 C-6.63016497 9.83884224 -6.0109362 9.0072908 -3 7 C-3.33 5.68 -3.66 4.36 -4 3 C-3.34 2.67 -2.68 2.34 -2 2 C-1.34 1.34 -0.68 0.68 0 0 Z " fill="#E0762A" transform="translate(129,85)"/>
<path d="M0 0 C0.66 0 1.32 0 2 0 C2.33 1.65 2.66 3.3 3 5 C4.32 4.34 5.64 3.68 7 3 C7.33 4.65 7.66 6.3 8 8 C7.34 8 6.68 8 6 8 C6.99 11.63 7.98 15.26 9 19 C5.33599876 15.33599876 4.0986623 13.54203851 2.25 8.9375 C1.82203125 7.89464844 1.3940625 6.85179687 0.953125 5.77734375 C0 3 0 3 0 0 Z " fill="#C86129" transform="translate(131,163)"/>
<path d="M0 0 C0.66 1.32 1.32 2.64 2 4 C1.34 4 0.68 4 0 4 C0 5.98 0 7.96 0 10 C1.32 9.67 2.64 9.34 4 9 C4 10.32 4 11.64 4 13 C3.34 13 2.68 13 2 13 C2.33 14.32 2.66 15.64 3 17 C0 16 0 16 -1.6875 13.375 C-3.1589255 9.59133442 -3.45562437 7.02468194 -3 3 C-1.5 1.0625 -1.5 1.0625 0 0 Z " fill="#DD8436" transform="translate(75,32)"/>
<path d="M0 0 C0 0.33 0 0.66 0 1 C-4.95 1.33 -9.9 1.66 -15 2 C-15.99 5.3 -16.98 8.6 -18 12 C-18.66 11.67 -19.32 11.34 -20 11 C-19.34 8.36 -18.68 5.72 -18 3 C-18.66 3 -19.32 3 -20 3 C-20 2.01 -20 1.02 -20 0 C-13.26188501 -1.41030314 -6.80977041 -0.66561666 0 0 Z " fill="#C96932" transform="translate(109,178)"/>
<path d="M0 0 C3.26843352 2.17895568 4.03171608 3.49587839 5.75 6.9375 C6.19859375 7.81277344 6.6471875 8.68804687 7.109375 9.58984375 C8 12 8 12 7 15 C5.02 14.34 3.04 13.68 1 13 C1.33 10.69 1.66 8.38 2 6 C1.01 5.67 0.02 5.34 -1 5 C-1.33 5.66 -1.66 6.32 -2 7 C-1.125 1.125 -1.125 1.125 0 0 Z " fill="#DF6130" transform="translate(167,58)"/>
<path d="M0 0 C1.125 3.75 1.125 3.75 0 6 C0.66 6.66 1.32 7.32 2 8 C1.34 8 0.68 8 0 8 C0 8.99 0 9.98 0 11 C0.66 11.33 1.32 11.66 2 12 C1.34 13.32 0.68 14.64 0 16 C-1.65 15.67 -3.3 15.34 -5 15 C-4.54705135 13.24859857 -4.08741252 11.49892656 -3.625 9.75 C-3.36976562 8.77546875 -3.11453125 7.8009375 -2.8515625 6.796875 C-2.10401491 4.34162697 -1.22876183 2.24382595 0 0 Z " fill="#DA641D" transform="translate(76,158)"/>
<path d="M0 0 C0.928125 0.2784375 0.928125 0.2784375 1.875 0.5625 C4.04160178 1.23686176 4.04160178 1.23686176 6 0 C5.27991594 4.60853797 3.68704061 8.67237409 2 13 C-0.32378307 9.5143254 -0.63078302 7.13523019 -1 3 C-0.67 2.01 -0.34 1.02 0 0 Z " fill="#D86F29" transform="translate(112,119)"/>
<path d="M0 0 C0.66 0.99 1.32 1.98 2 3 C1.1015625 6.13671875 1.1015625 6.13671875 -0.375 9.6875 C-0.85710937 10.86699219 -1.33921875 12.04648438 -1.8359375 13.26171875 C-2.22007813 14.16535156 -2.60421875 15.06898438 -3 16 C-3.66 16 -4.32 16 -5 16 C-4.938125 16.78375 -4.87625 17.5675 -4.8125 18.375 C-4.874375 19.24125 -4.93625 20.1075 -5 21 C-5.99 21.66 -6.98 22.32 -8 23 C-5.81659819 15.13620323 -3.00714974 7.58324716 0 0 Z " fill="#C56E3C" transform="translate(75,155)"/>
<path d="M0 0 C6.875 0.875 6.875 0.875 8 2 C8.04092937 4.33297433 8.04241723 6.66705225 8 9 C5.69 9.66 3.38 10.32 1 11 C0.34 10.34 -0.32 9.68 -1 9 C-0.9765625 6.8359375 -0.9765625 6.8359375 -0.625 4.375 C-0.51414063 3.55773437 -0.40328125 2.74046875 -0.2890625 1.8984375 C-0.19367187 1.27195312 -0.09828125 0.64546875 0 0 Z M2 1 C0.89363605 3.39068734 0.89363605 3.39068734 0 6 C0.33 6.66 0.66 7.32 1 8 C2.65 8 4.3 8 6 8 C6.67958603 5.60280568 6.67958603 5.60280568 7 3 C6.34 2.34 5.68 1.68 5 1 C4.01 1 3.02 1 2 1 Z " fill="#CD742E" transform="translate(51,66)"/>
<path d="M0 0 C2.475 0.495 2.475 0.495 5 1 C4.67 3.64 4.34 6.28 4 9 C4.66 9 5.32 9 6 9 C6 9.66 6 10.32 6 11 C6.66 11 7.32 11 8 11 C8 12.32 8 13.64 8 15 C7.34 15 6.68 15 6 15 C4.45703125 13.13671875 4.45703125 13.13671875 2.8125 10.6875 C2.26207031 9.88699219 1.71164063 9.08648437 1.14453125 8.26171875 C0.76683594 7.51535156 0.38914063 6.76898438 0 6 C0.33 5.01 0.66 4.02 1 3 C0.67 2.01 0.34 1.02 0 0 Z " fill="#C75A20" transform="translate(142,181)"/>
<path d="M0 0 C2.32472205 2.85306797 3.7508258 5.54074837 5 9 C2.69 9.33 0.38 9.66 -2 10 C-2.33 9.34 -2.66 8.68 -3 8 C-2.34 8 -1.68 8 -1 8 C-1 6.68 -1 5.36 -1 4 C-1.66 3.67 -2.32 3.34 -3 3 C-2.01 2.01 -1.02 1.02 0 0 Z " fill="#DE4B20" transform="translate(200,115)"/>
<path d="M0 0 C0.66 0 1.32 0 2 0 C2 1.98 2 3.96 2 6 C1.34 6 0.68 6 0 6 C-0.18175781 6.71027344 -0.36351563 7.42054688 -0.55078125 8.15234375 C-0.80214844 9.07144531 -1.05351563 9.99054688 -1.3125 10.9375 C-1.55613281 11.85402344 -1.79976563 12.77054688 -2.05078125 13.71484375 C-2.36402344 14.46894531 -2.67726562 15.22304687 -3 16 C-3.99 16.33 -4.98 16.66 -6 17 C-4.33846988 11.14340094 -2.52958084 5.5409866 0 0 Z " fill="#C66A30" transform="translate(66,179)"/>
<path d="M0 0 C0.66 0 1.32 0 2 0 C4 3 4 3 4 7 C4.66 7 5.32 7 6 7 C6.33 8.65 6.66 10.3 7 12 C3.46627288 10.03681826 0.75520215 7.95929119 -2 5 C-1.67 4.34 -1.34 3.68 -1 3 C-0.67 2.01 -0.34 1.02 0 0 Z " fill="#DF7129" transform="translate(53,127)"/>
<path d="M0 0 C2 2 2 2 2 5 C2.66 5 3.32 5 4 5 C4.33 6.65 4.66 8.3 5 10 C5.66 10 6.32 10 7 10 C7.33 13.63 7.66 17.26 8 21 C5.17678135 18.17678135 4.22705463 14.74021797 2.875 11.0625 C2.59785156 10.33353516 2.32070312 9.60457031 2.03515625 8.85351562 C0.89178807 5.78106567 0 3.30460627 0 0 Z " fill="#BF6E36" transform="translate(137,101)"/>
<path d="M0 0 C4.28621938 6.42932907 5.53418358 15.34336868 5 23 C2.60541252 19.40811878 2.25248127 16.47267629 1.5625 12.27734375 C1.16341425 9.81880229 1.16341425 9.81880229 -1 8 C-0.34 8 0.32 8 1 8 C0.67 5.36 0.34 2.72 0 0 Z " fill="#C24F31" transform="translate(209,130)"/>
<path d="M0 0 C0.33 0.99 0.66 1.98 1 3 C1.66 3 2.32 3 3 3 C3 2.01 3 1.02 3 0 C3.99 0.33 4.98 0.66 6 1 C6 1.66 6 2.32 6 3 C7.32 3 8.64 3 10 3 C9.67 4.65 9.34 6.3 9 8 C8.0925 7.67 7.185 7.34 6.25 7 C2.92954193 5.80394277 2.92954193 5.80394277 -1 6 C-0.67 4.02 -0.34 2.04 0 0 Z " fill="#D86B21" transform="translate(72,104)"/>
<path d="M0 0 C0.433125 0.474375 0.86625 0.94875 1.3125 1.4375 C3.02309613 3.23686957 3.02309613 3.23686957 6 4 C6.33 6.31 6.66 8.62 7 11 C5.68 11 4.36 11 3 11 C3.33 9.02 3.66 7.04 4 5 C3.38125 5.185625 2.7625 5.37125 2.125 5.5625 C0 6 0 6 -2 5 C-2 3.68 -2 2.36 -2 1 C-1.34 0.67 -0.68 0.34 0 0 Z " fill="#EA7C1F" transform="translate(59,61)"/>
<path d="M0 0 C1.65 0 3.3 0 5 0 C4.67 0.99 4.34 1.98 4 3 C3.34 3 2.68 3 2 3 C1.87625 3.78375 1.7525 4.5675 1.625 5.375 C1 8 1 8 -1 10 C-1.33 10.66 -1.66 11.32 -2 12 C-2.66 12 -3.32 12 -4 12 C-4.33 12.99 -4.66 13.98 -5 15 C-5.33 14.01 -5.66 13.02 -6 12 C-5.04422943 10.63461347 -4.03647024 9.30518475 -3 8 C-2.28837557 6.35202764 -1.60968047 4.68834592 -1 3 C-0.34 3 0.32 3 1 3 C0.67 2.01 0.34 1.02 0 0 Z " fill="#ED8127" transform="translate(112,64)"/>
<path d="M0 0 C0.66 1.32 1.32 2.64 2 4 C0.741875 4.28875 -0.51625 4.5775 -1.8125 4.875 C-4.8539399 5.57303539 -6.30669878 6.20446585 -9 8 C-11.33199388 8.07905064 -13.66832622 8.08798769 -16 8 C-15 6 -15 6 -13.14453125 5.25390625 C-12.37496094 5.02574219 -11.60539063 4.79757813 -10.8125 4.5625 C-6.99369166 3.36683477 -3.53349135 1.90264919 0 0 Z " fill="#A52D0D" transform="translate(165,221)"/>
<path d="M0 0 C2.97 0.495 2.97 0.495 6 1 C6 1.66 6 2.32 6 3 C6.66 3.33 7.32 3.66 8 4 C7.01 4 6.02 4 5 4 C5.33 5.98 5.66 7.96 6 10 C5.01 10 4.02 10 3 10 C1.11608215 6.73454239 0.50712033 3.71888239 0 0 Z " fill="#CE581B" transform="translate(152,196)"/>
<path d="M0 0 C2 3 2 3 1.75 6.5 C1 10 1 10 -1 13 C-1 10.69 -1 8.38 -1 6 C-2.32 6 -3.64 6 -5 6 C-5 5.01 -5 4.02 -5 3 C-2.5 1.3125 -2.5 1.3125 0 0 Z " fill="#BD3C23" transform="translate(210,175)"/>
<path d="M0 0 C0.66 0 1.32 0 2 0 C2.64834654 1.269553 3.29357815 2.54069706 3.9375 3.8125 C4.29714844 4.52019531 4.65679687 5.22789062 5.02734375 5.95703125 C6 8 6 8 7 11 C6.01 11 5.02 11 4 11 C3.67 12.32 3.34 13.64 3 15 C2.34 14.67 1.68 14.34 1 14 C1.875 9.125 1.875 9.125 3 8 C2.34 7.67 1.68 7.34 1 7 C0.59270772 4.67843403 0.25561323 2.3431213 0 0 Z " fill="#D26628" transform="translate(136,142)"/>
<path d="M0 0 C1.23593891 3.70781672 0.5678132 4.67510253 -0.9375 8.1875 C-1.31777344 9.08855469 -1.69804688 9.98960937 -2.08984375 10.91796875 C-2.39019531 11.60503906 -2.69054687 12.29210937 -3 13 C-3.66 13 -4.32 13 -5 13 C-5.33 13.66 -5.66 14.32 -6 15 C-7 12 -7 12 -6 9 C-5.34 9 -4.68 9 -4 9 C-3.67 6.69 -3.34 4.38 -3 2 C-2.01 2 -1.02 2 0 2 C0 1.34 0 0.68 0 0 Z " fill="#CA6A31" transform="translate(67,143)"/>
<path d="M0 0 C1.97538528 2.22230844 2.93956032 3.58699552 3.375 6.5625 C3 9 3 9 1.625 10.8125 C0 12 0 12 -2 12 C-2.28571429 3.42857143 -2.28571429 3.42857143 0 0 Z " fill="#EE8722" transform="translate(92,36)"/>
<path d="M0 0 C2 3 2 3 2 7 C3.32 7.33 4.64 7.66 6 8 C6 8.66 6 9.32 6 10 C3.69 10 1.38 10 -1 10 C-2.15837626 5.94568308 -1.83691257 3.78187881 0 0 Z " fill="#BE6C33" transform="translate(29,218)"/>
<path d="M0 0 C0.99 0.33 1.98 0.66 3 1 C2.67 3.64 2.34 6.28 2 9 C0.35 9.33 -1.3 9.66 -3 10 C-2.67 8.35 -2.34 6.7 -2 5 C-1.01 5 -0.02 5 1 5 C0.67 3.35 0.34 1.7 0 0 Z " fill="#D86C24" transform="translate(59,142)"/>
<path d="M0 0 C1.98 0.495 1.98 0.495 4 1 C3.5206753 5.31392226 2.2542015 7.16569547 -1 10 C-1.125 2.25 -1.125 2.25 0 0 Z " fill="#E9642B" transform="translate(166,63)"/>
<path d="M0 0 C1.9375 0.8125 1.9375 0.8125 4 2 C4.33 2.99 4.66 3.98 5 5 C3.68 6.32 2.36 7.64 1 9 C0.01 8.34 -0.98 7.68 -2 7 C-1.34 4.69 -0.68 2.38 0 0 Z " fill="#F58D29" transform="translate(123,32)"/>
<path d="M0 0 C0.66 0 1.32 0 2 0 C2 1.65 2 3.3 2 5 C3.65 4.67 5.3 4.34 7 4 C6.67 6.97 6.34 9.94 6 13 C4 10 4 10 4 8 C3.34 8 2.68 8 2 8 C0.74335022 5.09399739 0 3.20395416 0 0 Z " fill="#DA7631" transform="translate(134,93)"/>
<path d="M0 0 C1.70840281 1.63412443 2.93453047 2.86906094 4 5 C4.039992 6.99960012 4.04346799 9.00047242 4 11 C3.34 10.01 2.68 9.02 2 8 C1.34 7.34 0.68 6.68 0 6 C-0.66 7.32 -1.32 8.64 -2 10 C-3.60920937 6.78158126 -2.0749168 4.28446801 -1 1 C-0.67 0.67 -0.34 0.34 0 0 Z " fill="#E19D49" transform="translate(131,10)"/>
<path d="M0 0 C-0.33 3.96 -0.66 7.92 -1 12 C-2.32 11.34 -3.64 10.68 -5 10 C-4.125 5.25 -4.125 5.25 -3 3 C-3.66 2.67 -4.32 2.34 -5 2 C-2 0 -2 0 0 0 Z " fill="#D65D1B" transform="translate(91,181)"/>
<path d="M0 0 C0.66 0 1.32 0 2 0 C3.05404945 3.98196457 2.84098656 6.98195309 2 11 C0.68 10.34 -0.64 9.68 -2 9 C-1.01 8.67 -0.02 8.34 1 8 C-0.32 7.67 -1.64 7.34 -3 7 C-2.67 5.68 -2.34 4.36 -2 3 C-1.34 3 -0.68 3 0 3 C0 2.01 0 1.02 0 0 Z " fill="#EB7C27" transform="translate(106,80)"/>
<path d="M0 0 C4.0081803 3.67416528 6.52591615 7.14346504 9 12 C9 12.66 9 13.32 9 14 C8.34 14 7.68 14 7 14 C3.88002198 10.69649386 3 9.67590167 3 5 C2.34 5 1.68 5 1 5 C0.67 3.35 0.34 1.7 0 0 Z " fill="#C66B3D" transform="translate(147,158)"/>
<path d="M0 0 C2.48728231 2.91985315 3.71066493 5.14219907 4 9 C3.0625 11.3125 3.0625 11.3125 2 13 C1.67 12.34 1.34 11.68 1 11 C0.01 10.67 -0.98 10.34 -2 10 C-1.34 9.34 -0.68 8.68 0 8 C-0.29259485 5.99363529 -0.62633887 3.99285937 -1 2 C-0.67 1.34 -0.34 0.68 0 0 Z " fill="#F5932E" transform="translate(131,14)"/>
<path d="M0 0 C2.52446412 4.71233302 3.12607737 8.409501 3.0625 13.75 C3.05347656 14.73484375 3.04445312 15.7196875 3.03515625 16.734375 C3.02355469 17.48203125 3.01195312 18.2296875 3 19 C2.67 19 2.34 19 2 19 C0.26044666 12.56986533 -0.24991456 6.65050424 0 0 Z " fill="#CE6F3B" transform="translate(155,117)"/>
<path d="M0 0 C0.99 0 1.98 0 3 0 C3.53093324 1.93475671 4.04942317 3.87293155 4.5625 5.8125 C4.85253906 6.89144531 5.14257812 7.97039062 5.44140625 9.08203125 C6 12 6 12 5 15 C4.16013916 13.06532058 3.32831973 11.12714871 2.5 9.1875 C2.0359375 8.10855469 1.571875 7.02960938 1.09375 5.91796875 C0 3 0 3 0 0 Z " fill="#BF612F" transform="translate(145,122)"/>
<path d="M0 0 C2.47512452 2.90558095 3.80697424 5.13948478 4 9 C2.5625 11.3125 2.5625 11.3125 1 13 C0.26919734 11.02253397 -0.39421747 9.01927511 -1 7 C-0.67 6.34 -0.34 5.68 0 5 C0.0396713 3.33380554 0.04384447 1.66608987 0 0 Z " fill="#F08327" transform="translate(150,62)"/>
<path d="M0 0 C0.33 0 0.66 0 1 0 C1.08636719 0.66386719 1.17273437 1.32773438 1.26171875 2.01171875 C2.21825737 8.02299359 3.18149408 11.19591638 8 15 C5.03934968 14.6799297 3.44593877 14.46276664 1.34375 12.28125 C-0.27419551 9.5345053 -0.31220835 7.90927814 -0.1875 4.75 C-0.16042969 3.85796875 -0.13335937 2.9659375 -0.10546875 2.046875 C-0.07066406 1.37140625 -0.03585938 0.6959375 0 0 Z " fill="#DE8740" transform="translate(43,67)"/>
<path d="M0 0 C2.26185454 2.26185454 3.03921617 3.96983561 4 7 C3.67 7.99 3.34 8.98 3 10 C1.68 9.67 0.36 9.34 -1 9 C-1.125 2.25 -1.125 2.25 0 0 Z " fill="#F38723" transform="translate(142,41)"/>
<path d="M0 0 C0.99 0.66 1.98 1.32 3 2 C3.99 2 4.98 2 6 2 C5.01 2.99 4.02 3.98 3 5 C2.34 4.67 1.68 4.34 1 4 C1.33 5.65 1.66 7.3 2 9 C0.68 9.33 -0.64 9.66 -2 10 C-1.34 6.7 -0.68 3.4 0 0 Z " fill="#C66220" transform="translate(58,138)"/>
<path d="M0 0 C0 2.31 0 4.62 0 7 C0.66 7.33 1.32 7.66 2 8 C1.67 8.66 1.34 9.32 1 10 C0.01 9.67 -0.98 9.34 -2 9 C-2.33 6.69 -2.66 4.38 -3 2 C-4.65 2 -6.3 2 -8 2 C-7.67 1.34 -7.34 0.68 -7 0 C-2.52459016 -1.26229508 -2.52459016 -1.26229508 0 0 Z " fill="#D88132" transform="translate(90,34)"/>
<path d="M0 0 C1.231394 3.69418201 0.64432764 6.2056261 0 10 C-1.32 10 -2.64 10 -4 10 C-3.43454163 6.04179141 -2.19097652 3.3340947 0 0 Z " fill="#D06A2B" transform="translate(53,216)"/>
<path d="M0 0 C2.475 0.495 2.475 0.495 5 1 C5 3.97 5 6.94 5 10 C4.01 10.495 4.01 10.495 3 11 C2 6.125 2 6.125 2 5 C1.34 4.01 0.68 3.02 0 2 C0 1.34 0 0.68 0 0 Z " fill="#D87234" transform="translate(152,137)"/>
<path d="M0 0 C0.33 0.66 0.66 1.32 1 2 C1.99 2 2.98 2 4 2 C4 3.98 4 5.96 4 8 C3.67 7.34 3.34 6.68 3 6 C1.35 6.33 -0.3 6.66 -2 7 C-1.34 4.69 -0.68 2.38 0 0 Z " fill="#D1742B" transform="translate(70,110)"/>
<path d="M0 0 C0.33 0 0.66 0 1 0 C0.67 2.64 0.34 5.28 0 8 C-0.66 8 -1.32 8 -2 8 C-2.33 8.66 -2.66 9.32 -3 10 C-3.33 7.69 -3.66 5.38 -4 3 C-3.34 2.67 -2.68 2.34 -2 2 C-1.34 1.34 -0.68 0.68 0 0 Z " fill="#E67F34" transform="translate(129,85)"/>
<path d="M0 0 C0.66 0 1.32 0 2 0 C1.44894091 3.9492568 0.61064629 7.34920174 -1 11 C-1.33 11 -1.66 11 -2 11 C-2 8.03 -2 5.06 -2 2 C-1.34 2 -0.68 2 0 2 C0 1.34 0 0.68 0 0 Z " fill="#C16C2E" transform="translate(84,200)"/>
<path d="M0 0 C1.32 0.66 2.64 1.32 4 2 C2.02 4.64 0.04 7.28 -2 10 C-3.39195915 5.82412255 -1.82323219 3.86525224 0 0 Z " fill="#D6681C" transform="translate(81,146)"/>
<path d="M0 0 C3 2 3 2 3.6875 4.625 C3.790625 5.40875 3.89375 6.1925 4 7 C1.525 6.01 1.525 6.01 -1 5 C-1.33 5.66 -1.66 6.32 -2 7 C-1.125 1.125 -1.125 1.125 0 0 Z " fill="#C96C3F" transform="translate(167,58)"/>
<path d="M0 0 C0.33 0 0.66 0 1 0 C1.125 6.75 1.125 6.75 0 9 C-0.66 9 -1.32 9 -2 9 C-2.33 10.65 -2.66 12.3 -3 14 C-4.25955231 10.22134307 -3.48087189 8.96588214 -2.0625 5.3125 C-1.68222656 4.31863281 -1.30195312 3.32476563 -0.91015625 2.30078125 C-0.60980469 1.54152344 -0.30945313 0.78226563 0 0 Z " fill="#D88C40" transform="translate(125,23)"/>
<path d="M0 0 C0.33 0 0.66 0 1 0 C1 3.33333333 1 6.66666667 1 10 C0.01 10.33 -0.98 10.66 -2 11 C-1.85892253 9.54119891 -1.71197585 8.08296449 -1.5625 6.625 C-1.48128906 5.81289062 -1.40007812 5.00078125 -1.31640625 4.1640625 C-1 2 -1 2 0 0 Z " fill="#DA742D" transform="translate(67,118)"/>
<path d="M0 0 C0.99 0.66 1.98 1.32 3 2 C-0.465 4.97 -0.465 4.97 -4 8 C-4.66 7.34 -5.32 6.68 -6 6 C-4.68 5.67 -3.36 5.34 -2 5 C-1.855625 4.360625 -1.71125 3.72125 -1.5625 3.0625 C-1 1 -1 1 0 0 Z " fill="#AA3625" transform="translate(189,212)"/>
<path d="M0 0 C1.0326802 2.78823655 1.04509293 3.8677274 0.0625 6.75 C-0.288125 7.4925 -0.63875 8.235 -1 9 C-1.99 9 -2.98 9 -4 9 C-3.35455571 5.51460083 -1.89865603 2.97180943 0 0 Z " fill="#D55725" transform="translate(185,191)"/>
<path d="M0 0 C0.66 0.99 1.32 1.98 2 3 C1.125 6.6875 1.125 6.6875 0 10 C-0.66 10 -1.32 10 -2 10 C-1.46274105 6.62294375 -0.88935377 3.303314 0 0 Z " fill="#CA4B14" transform="translate(178,158)"/>
<path d="M0 0 C0.66 0.33 1.32 0.66 2 1 C1.34 3.97 0.68 6.94 0 10 C-0.66 10 -1.32 10 -2 10 C-1.125 2.25 -1.125 2.25 0 0 Z " fill="#D47B36" transform="translate(75,97)"/>
<path d="M0 0 C2 1.625 2 1.625 4 4 C4.25 7.25 4.25 7.25 4 10 C3.34 10 2.68 10 2 10 C1.34 6.7 0.68 3.4 0 0 Z " fill="#EA9039" transform="translate(145,46)"/>
<path d="M0 0 C1.13643966 3.40931897 0.86747764 4.00335456 -0.4375 7.1875 C-0.86869141 8.26064453 -0.86869141 8.26064453 -1.30859375 9.35546875 C-1.53675781 9.89816406 -1.76492187 10.44085938 -2 11 C-2.33 11 -2.66 11 -3 11 C-3 8.03 -3 5.06 -3 2 C-2.01 2 -1.02 2 0 2 C0 1.34 0 0.68 0 0 Z " fill="#BE6934" transform="translate(81,211)"/>
<path d="M0 0 C0.66 0 1.32 0 2 0 C2 0.66 2 1.32 2 2 C2.66 2 3.32 2 4 2 C4 2.66 4 3.32 4 4 C4.66 4 5.32 4 6 4 C6 5.32 6 6.64 6 8 C5.34 8 4.68 8 4 8 C0 2.58823529 0 2.58823529 0 0 Z " fill="#BA5E2E" transform="translate(144,188)"/>
<path d="M0 0 C0 0.66 0 1.32 0 2 C-2.25 4.1875 -2.25 4.1875 -5 6 C-7.3125 5.75 -7.3125 5.75 -9 5 C-3.375 0 -3.375 0 0 0 Z " fill="#C16E36" transform="translate(170,175)"/>
<path d="M0 0 C0.66 0.33 1.32 0.66 2 1 C2.33 1.99 2.66 2.98 3 4 C0.36 4 -2.28 4 -5 4 C-3.73293765 1.46587529 -2.59334288 1.02161992 0 0 Z " fill="#D8621C" transform="translate(98,174)"/>
<path d="M0 0 C0.99 0.33 1.98 0.66 3 1 C3.94921875 3.06640625 3.94921875 3.06640625 4.6875 5.5625 C4.93886719 6.38878906 5.19023437 7.21507812 5.44921875 8.06640625 C5.63097656 8.70449219 5.81273437 9.34257812 6 10 C2.51668565 6.98112756 1.20842856 4.43090471 0 0 Z " fill="#B85930" transform="translate(134,172)"/>
<path d="M0 0 C1.32 1.32 2.64 2.64 4 4 C3.67 4.99 3.34 5.98 3 7 C0.9375 7.6875 0.9375 7.6875 -1 8 C-0.4740625 7.13375 -0.4740625 7.13375 0.0625 6.25 C1.14917407 3.64198224 0.93065133 2.60582371 0 0 Z " fill="#D16826" transform="translate(143,153)"/>
<path d="M0 0 C0.66 0.33 1.32 0.66 2 1 C2 1.99 2 2.98 2 4 C1.01 4 0.02 4 -1 4 C-1.33 6.31 -1.66 8.62 -2 11 C-2.33 11 -2.66 11 -3 11 C-2.88590407 9.54077307 -2.75834456 8.08259402 -2.625 6.625 C-2.55539063 5.81289062 -2.48578125 5.00078125 -2.4140625 4.1640625 C-2 2 -2 2 0 0 Z " fill="#B05D33" transform="translate(133,132)"/>
<path d="M0 0 C2.0625 0.4375 2.0625 0.4375 4 1 C3.34 3.31 2.68 5.62 2 8 C1.34 7.67 0.68 7.34 0 7 C-0.6875 4 -0.6875 4 -1 1 C-0.67 0.67 -0.34 0.34 0 0 Z " fill="#F49233" transform="translate(79,34)"/>
<path d="M0 0 C0.66 0 1.32 0 2 0 C1.67 1.32 1.34 2.64 1 4 C0.34 4 -0.32 4 -1 4 C-1.33 5.65 -1.66 7.3 -2 9 C-2.66 9 -3.32 9 -4 9 C-2.94124926 5.59687262 -1.99097846 2.98646769 0 0 Z " fill="#B95834" transform="translate(152,219)"/>
<path d="M0 0 C-0.875 4.75 -0.875 4.75 -2 7 C-2.66 7 -3.32 7 -4 7 C-4.6875 5.1875 -4.6875 5.1875 -5 3 C-3.38441968 0.84589291 -2.74502455 0 0 0 Z " fill="#DB6C29" transform="translate(78,219)"/>
<path d="M0 0 C0.66 0 1.32 0 2 0 C1.32829194 3.8063457 0.27253436 7.35206816 -1 11 C-1.66 9.68 -2.32 8.36 -3 7 C-2.34 7 -1.68 7 -1 7 C-0.67 4.69 -0.34 2.38 0 0 Z " fill="#C87237" transform="translate(71,130)"/>
<path d="M0 0 C-0.33 1.65 -0.66 3.3 -1 5 C-2.32 5.33 -3.64 5.66 -5 6 C-5 5.01 -5 4.02 -5 3 C-4.01 3.33 -3.02 3.66 -2 4 C-2 3.34 -2 2.68 -2 2 C-2.99 1.67 -3.98 1.34 -5 1 C-3 0 -3 0 0 0 Z " fill="#DC6619" transform="translate(65,132)"/>
<path d="M0 0 C0.33 0.99 0.66 1.98 1 3 C-0.9375 5.6875 -0.9375 5.6875 -3 8 C-3.66 7.67 -4.32 7.34 -5 7 C-4.34 6.01 -3.68 5.02 -3 4 C-3 3.01 -3 2.02 -3 1 C-2.01 0.67 -1.02 0.34 0 0 Z " fill="#CA762F" transform="translate(66,74)"/>
<path d="M0 0 C2.475 0.99 2.475 0.99 5 2 C4.01 3.32 3.02 4.64 2 6 C0 5 0 5 -0.6875 3 C-0.790625 2.34 -0.89375 1.68 -1 1 C-0.67 0.67 -0.34 0.34 0 0 Z " fill="#E88332" transform="translate(59,76)"/>
<path d="M0 0 C0.33 0.99 0.66 1.98 1 3 C0.67 3.66 0.34 4.32 0 5 C-0.66 5 -1.32 5 -2 5 C-2 7.64 -2 10.28 -2 13 C-2.33 13 -2.66 13 -3 13 C-3.4726477 4.80743982 -3.4726477 4.80743982 -1.5 1.4375 C-0.7575 0.7259375 -0.7575 0.7259375 0 0 Z " fill="#C27634" transform="translate(45,62)"/>
<path d="M0 0 C1.98567708 0.09765625 3.97135417 0.1953125 5.95703125 0.29296875 C5.95703125 0.95296875 5.95703125 1.61296875 5.95703125 2.29296875 C2.32703125 2.62296875 -1.30296875 2.95296875 -5.04296875 3.29296875 C-2.04296875 0.29296875 -2.04296875 0.29296875 0 0 Z " fill="#8F251A" transform="translate(161.04296875,225.70703125)"/>
<path d="M0 0 C0.66 0 1.32 0 2 0 C5 5.75 5 5.75 5 8 C3.68 7.67 2.36 7.34 1 7 C0.67 4.69 0.34 2.38 0 0 Z " fill="#C56531" transform="translate(136,142)"/>
<path d="M0 0 C2.475 0.99 2.475 0.99 5 2 C5 2.99 5 3.98 5 5 C5.66 5 6.32 5 7 5 C6.67 5.99 6.34 6.98 6 8 C4.99403703 7.0479279 3.99538437 6.08812654 3 5.125 C2.443125 4.59132812 1.88625 4.05765625 1.3125 3.5078125 C0 2 0 2 0 0 Z " fill="#C26C35" transform="translate(51,130)"/>
<path d="M0 0 C1.65 0 3.3 0 5 0 C5.33 0.99 5.66 1.98 6 3 C5.01 3 4.02 3 3 3 C2.67 3.66 2.34 4.32 2 5 C1.01 4.67 0.02 4.34 -1 4 C-0.67 2.68 -0.34 1.36 0 0 Z " fill="#E87A29" transform="translate(72,108)"/>
<path d="M0 0 C-0.556875 0.268125 -1.11375 0.53625 -1.6875 0.8125 C-4.19712523 2.10122647 -6.59334236 3.52926478 -9 5 C-8.625 3.0625 -8.625 3.0625 -8 1 C-5.29120665 -0.35439668 -2.99066732 -0.06501451 0 0 Z " fill="#DF8B45" transform="translate(55,59)"/>
<path d="M0 0 C0.66 0 1.32 0 2 0 C2.33 0.99 2.66 1.98 3 3 C3.33 3.66 3.66 4.32 4 5 C2.02 5.99 2.02 5.99 0 7 C-0.93423645 3.98968256 -1.04449911 3.13349732 0 0 Z " fill="#F0861F" transform="translate(75,36)"/>
<path d="M0 0 C0.66 0 1.32 0 2 0 C2 1.98 2 3.96 2 6 C1.01 6.33 0.02 6.66 -1 7 C-0.67 4.69 -0.34 2.38 0 0 Z " fill="#D26E32" transform="translate(66,179)"/>
<path d="M0 0 C1.32 0 2.64 0 4 0 C4.33 1.65 4.66 3.3 5 5 C3.02 4.01 1.04 3.02 -1 2 C-0.67 1.34 -0.34 0.68 0 0 Z " fill="#E7741F" transform="translate(76,101)"/>
</svg>
